<?xml version="1.0" encoding="UTF-8" standalone="no"?>
<!DOCTYPE svg PUBLIC "-//W3C//DTD SVG 1.1//EN"
"http://www.w3.org/Graphics/SVG/1.1/DTD/svg11.dtd">


<!-- Page 1 -->
<svg x="0" y="0" width="1672" height="153" viewBox="0 0 1672 153" version="1.1" xmlns="http://www.w3.org/2000/svg" xmlns:xlink="http://www.w3.org/1999/xlink"
style="display: block;margin-left: auto;margin-right: auto;">
<defs>
<clipPath id="c0_1"><path d="M1347.6,89.5l0,-82.5l81.6,0l0,82.5Z" /></clipPath>
<clipPath id="c1_1"><path d="M1461.8,89.5l0,-80l84.1,0l0,80Z" /></clipPath>

<style type="text/css"><![CDATA[

.g1_1{
fill: none;
stroke: #00A94E;
stroke-width: 3.2419446;
stroke-linecap: butt;
stroke-linejoin: miter;
stroke-miterlimit: 4;
}
.g2_1{
fill: #00A94E;
}
.g3_1{
fill: #FFFFFF;
}
.g4_1{
fill: none;
stroke: #00A94E;
stroke-width: 1.9830556;
stroke-linecap: butt;
stroke-linejoin: miter;
stroke-miterlimit: 4;
}
.g5_1{
fill: none;
stroke: #FFFFFF;
stroke-width: 1.9372222;
stroke-linecap: round;
stroke-linejoin: round;
stroke-miterlimit: 4;
}
.g6_1{
fill: none;
stroke: #FFFFFF;
stroke-width: 1.2925;
stroke-linecap: round;
stroke-linejoin: round;
stroke-miterlimit: 4;
}


]]></style>

</defs>
<path d="M0,0
L0,153
L1672,153
L1672,0 Z " 
fill="#FFFFFF" stroke="none" />
<path d="M1181.8,19.3l0,122" class="g1_1" />
<path d="M85.3,68.2c1.1,-1.6,3.1,-2.2,4,-4c-2,-1.1,-5.1,0.9,-4,4m-5.1,-4c0.6,1.9,1.9,3,2.8,4.7c0.4,-1.6,1.1,-2.8,1,-4.9c-1.2,-0.7,-2.6,0.2,-3.8,0.2M78,88.4C82.7,83.8,83.8,67,77.6,63.7c-1,0.2,-1.9,0.7,-2.9,0.5c-1.9,-0.3,-3.1,-2.8,-5,-3.6c-2.4,-0.9,-4.5,0.6,-6.3,-1.5c-0.2,-1.8,0.9,-2,0.8,-3.8C62.5,53.3,58,54.5,56.8,52c0.5,-2.2,2.4,-2.9,1.8,-5.1c-0.3,-1.2,-2,-1.1,-2.3,-2.5c-0.5,-1.7,0.9,-2.1,1.1,-4.2c-1,-0.9,-2,-0.8,-2.1,-2.2C55,35.3,58.8,34.6,60,33.1c-0.4,-1,-2.8,0.2,-3,-1.1c1,-2.3,2.5,-4.7,5,-4.9c1.3,-0.1,2.5,1.1,3.6,0.9c1,-0.3,1.6,-2.3,2.5,-2.5c1.6,-0.3,3.3,2,5,1.6c1,-0.3,1.7,-1.9,2.3,-2.5c1.8,-1.5,4.2,-3.1,6.4,-3.1c3.9,0,7.2,5.2,10.7,4.5c1,-0.2,1.6,-1.5,2.7,-1.8c2.2,-0.7,4.5,-0.8,6.8,0.9c0.1,1.4,-0.5,2.3,0,3.3c2.3,1.4,5,-0.2,7.1,0.9c2.4,1.3,3,4.9,4.3,7.6c-0.1,1.2,-2.1,0.4,-2.2,1.7c2.8,0.9,3.8,2.7,2,5.8c-0.5,0.9,-1.5,1.6,-1.6,2.7c0,2,1.9,1.7,1.4,4.2c-1.2,0.9,-2.7,0.2,-3.7,0.7c-1.7,0.8,-1.4,3.4,-3,4.2c-1.1,0.8,-2.9,-0.5,-4,0.2c-1.1,1.1,-1.1,3.3,-2.3,4.2c-2.4,-1.5,-2.9,1.7,-4.2,2.7c-0.7,0.2,-1.5,-0.4,-2.4,-0.2c-2.3,0.4,-6.9,5.2,-7.3,8.4c-0.3,2.9,0.5,6.7,1,9.8c0.4,2.5,1.4,6.5,3.2,7.1Z" class="g2_1" />
<path d="M50.7,88.2L15,88L15,15.4l34.8,0l0,20.7Z" class="g2_1" />
<path d="M28.9,33.1l-8.7,0l0,-6l8.7,0l0,6Z" class="g3_1" />
<path d="M43.3,33.4l-8.8,0l0,-6l8.8,0l0,6Z" class="g3_1" />
<path d="M29.1,44.1l-8.8,0l0,-6.1l8.8,0l0,6.1Z" class="g3_1" />
<path d="M43.5,44l-8.8,0l0,-6.1l8.8,0l0,6.1Z" class="g3_1" />
<path d="M28.6,55.7l-8.8,0l0,-6l8.8,0l0,6Z" class="g3_1" />
<path d="M43,55.5l-8.8,0l0,-6l8.8,0l0,6Z" class="g3_1" />
<path d="M28.7,66.9l-8.7,0l0,-6.1l8.7,0l0,6.1Z" class="g3_1" />
<path d="M43.2,67.2l-8.8,0l0,-6.1l8.8,0l0,6.1Z" class="g3_1" />
<path d="M29.1,78.2l-8.8,0l0,-6.1l8.8,0l0,6.1Z" class="g3_1" />
<path d="M43.4,77.9l-8.8,0l0,-6.1l8.8,0l0,6.1Z" class="g3_1" />
<path d="M140,68.4l-2.6,-2.2l-3.2,-2.5L121.6,53.9L101,70.4l2.7,0l0,17.4l24.3,0l0,-10.2c0,-1.9,1.5,-3.4,3.4,-3.4c1.9,0,3.4,1.5,3.4,3.4l0,10.2l4.6,0l0,-17.4Z" class="g2_1" />
<path d="M121.1,79.8l-7.4,0l0,-5.1l7.4,0l0,5.1Z" class="g3_1" />
<path d="M15,94.1l0,44.5l29.9,0C55.6,121.3,80.7,101.8,139.5,98.3l0,-4.2Zm73.8,44.5l50.7,0l0,-33.2c-1.9,0.4,-39.2,7.8,-50.7,33.2Z" class="g2_1" />
<path d="M139.5,14.9l-124.7,0l0,123.7l124.7,0l0,-123.7Z" class="g4_1" />
<g clip-path="url(#c0_1)">
<path d="M1428.6,48.4c0,22.3,-18.1,40.5,-40.5,40.5c-22.4,0,-40.5,-18.2,-40.5,-40.5c0,-22.4,18.1,-40.5,40.5,-40.5c22.4,0,40.5,18.1,40.5,40.5Z" class="g2_1" />
</g>
<path fill-rule="evenodd" d="M1367.4,49.4l0,0l0,-0.1c0.1,0,0.1,0,0.1,0c0,-0.1,0,-0.1,0,-0.1c0,0,0,-0.1,0,-0.1l0.1,0l0,-0.1l0,-0.1c0.1,0,0.1,0,0.1,0c0,-0.1,0,-0.1,0.1,-0.1l0,-0.1l0,-0.1c0,0,0.1,0,0.1,0l0,-0.1l0.1,0l0,-0.1l0,-0.1l0.1,-0.1l0,-0.1c0.1,0,0.1,0,0.1,0l0,-0.1l0,-0.1c0,0,0.1,0,0.1,0l0,-0.1c0,0,0.1,0,0.1,0c0,-0.1,0,-0.1,0,-0.1c0,-0.1,0,-0.1,0,-0.1c0.1,0,0.1,0,0.1,0l0,-0.1l0.1,0l0,-0.1l0,-0.1l0.1,0l0,-0.1l0,-0.1c0,0,0.1,0,0.1,0l0,-0.1c0,0,0.1,0,0.1,-0.1l0,-0.1c0.1,0,0.1,0,0.1,0l0,-0.1l0.1,0c0,-0.1,0,-0.1,0,-0.1c0.1,-0.1,0.1,-0.1,0.1,-0.2c0,0,0,-0.1,0,-0.1l0.1,0c0,-0.1,0,-0.1,0,-0.1l0,-0.1c0,0,0.1,0,0.1,0l0,-0.1c0,0,0.1,0,0.1,0c0,0,0,-0.1,0,-0.1c0,0,0,-0.1,0,-0.1l0.1,0l0,-0.1l0,-0.1l0.1,0l0,-0.1l0.1,0c0,0,0,-0.1,0,-0.1l0,-0.1c0.1,0,0.1,0,0.1,0l0,-0.1c0.1,0,0.1,0,0.1,0l0,-0.1c0,0,0,-0.1,0.1,-0.1c0,0,0,-0.1,0,-0.1l0.1,0l0,-0.1l0,-0.1l0.1,0c0,0,0,-0.1,0,-0.1l0.1,0l0,-0.1l0,-0.1l0.1,0l0,-0.1c0,0,0,-0.1,0,-0.1l0.1,0l0,-0.1c0,-0.1,0,-0.1,0,-0.1c0.1,0,0.1,0,0.1,0l0,-0.1l0,-0.1l0.1,0l0,-0.1l0.1,0l0,-0.1l0,-0.1c0,0,0.1,0,0.1,0c0,-0.1,0,-0.1,0,-0.1l0,-0.1l0.1,0c0,-0.1,0,-0.1,0,-0.1l0.1,0l0,-0.1c0,0,0,-0.1,0.1,-0.1l0,-0.1l0.1,0l0,-0.1l0,-0.1l0.1,0l0,-0.1c0.1,0,0.1,0,0.1,0l0,-0.1c0,0,0,-0.1,0,-0.1l0.1,0l0,-0.1l0.1,0c0,-0.1,0,-0.1,0,-0.1c0,-0.1,0,-0.1,0.1,-0.1c0,-0.1,0,-0.1,0,-0.1c0,-0.1,0,-0.1,0,-0.1c0,0,0.1,0,0.1,0l0,-0.1l0,-0.1c0.1,0,0.1,0,0.1,0l0,-0.1l0,-0.1c0.1,0,0.1,0,0.1,0l0,-0.1c0,0,0.1,0,0.1,-0.1c0,-0.1,0,-0.1,0,-0.1c0,0,0.1,0,0.1,0c0,-0.1,0,-0.1,0,-0.1l0.1,0l0,-0.1l0,-0.1c0,0,0.1,0,0.1,0l0,-0.1l0.1,0l0,-0.1l0,-0.1l0.1,0l0,-0.1l0,-0.1l0.1,0c0,0,0,-0.1,0,-0.1l0.1,0l0,-0.1l0,-0.1l0.1,0c0,0,0,-0.1,0,-0.1l0,-0.1c0,0,0.1,0,0.1,0l0,-0.1l0.1,0l0,-0.1l0,-0.1c0,0,0.1,0,0.1,0c0,-0.1,0,-0.1,0,-0.1c0,0,0,-0.1,0,-0.1l0.1,0c0,-0.1,0,-0.1,0,-0.1c0,0,0.1,0,0.1,0l0,-0.1c0,0,0,-0.1,0,-0.1l0.1,0l0,-0.1l0,-0.1c0,0,0.1,0,0.1,0l0,-0.1l0.1,0l0,-0.1l0,-0.1l0.1,0c0,-0.1,0,-0.1,0,-0.1c0,0,0.1,0,0.1,-0.1l0,-0.1c0.1,0,0.1,0,0.1,0c0,0,0,-0.1,0,-0.1c0,0,0,-0.1,0,-0.1c0.1,0,0.1,0,0.1,0l0,-0.1l0.1,-0.1l0,-0.1c0.1,0,0.1,0,0.1,-0.1l0,-0.1c0.1,0,0.1,0,0.1,0l0,-0.1c0.1,0,0.1,0,0.1,-0.1c0,0,0,-0.1,0,-0.1l0.1,0l0,-0.1l0,-0.1c0.1,0,0.1,0,0.1,0l0,-0.1c0,0,0.1,0,0.1,0l0,-0.1l0,-0.1l0.1,0l0,-0.1c0.1,-0.1,0.1,-0.1,0.1,-0.1c0,-0.1,0,-0.1,0,-0.1c0.1,0,0.1,0,0.1,0c0,-0.1,0,-0.1,0,-0.1c0,-0.1,0,-0.1,0,-0.1c0,0,0.1,0,0.1,0c0,0,0,-0.1,0,-0.1l0.1,0l0,-0.1c0,-0.1,0,-0.1,0,-0.1l0.1,0l0,-0.1l0,-0.1c0.1,0,0.1,0,0.1,0c0,0,0,-0.1,0,-0.1c0,0,0.1,0,0.1,0l0,-0.1l0,-0.1l0.1,0l0,-0.1c0.1,0,0.1,-0.1,0.1,-0.1l0,-0.1c0,0,0.1,0,0.1,0l0,-0.1l0,-0.1l0.1,0l0,-0.1c0,0,0.1,0,0.1,0l0,-0.1c0,0,0,-0.1,0,-0.1c0,0,0.1,0,0.1,0c0,-0.1,0,-0.1,0,-0.1c0,0,0,-0.1,0.1,-0.1l0,-0.1c0,0,0.1,0,0.1,0c0,-0.1,0,-0.1,0,-0.1l0,-0.1l0.1,0l0,-0.1l0,-0.1c0.1,0,0.1,0,0.1,0l0,-0.1c0.1,0,0.1,0,0.1,0l0,-0.1l0,-0.1l0.1,0c0,0,0,-0.1,0,-0.1l0.1,0l0,-0.1l0,-0.1l0.1,0l0,-0.1l0,-0.1l0.1,0c0,0,0,-0.1,0,-0.1c0,0,0.1,-0.1,0.1,-0.1l0,-0.1l0.1,0c0,0,0,-0.1,0,-0.1l0.1,-0.1c0,-0.1,0,-0.1,0,-0.1l0.1,-0.1l0,-0.1l0.1,0c0,-0.1,0,-0.1,0,-0.1l0,-0.1c0.1,0,0.1,0,0.1,0c0,0,0,-0.1,0,-0.1c0.1,0,0.1,0,0.1,0l0,-0.1l0,-0.1c0,0,0.1,0,0.1,0l0,-0.1c0.1,0,0.1,0,0.1,0c0,-0.1,0,-0.1,0,-0.1l0,-0.1l0.1,0l0,-0.1c0,0,0.1,0,0.1,-0.1l0.1,0l0.2,0c0.1,-0.1,0.3,-0.1,0.4,0l0.2,0l0.3,0c0,-0.1,0.1,-0.1,0.2,-0.1c0.1,0,0.1,0,0.2,0l0.1,0l0.1,0l0.1,0l0.1,0c0,0,0.1,0,0.1,0l0.1,0l0.1,0l0.1,0c0.1,0,0.2,0,0.2,0c0.1,0,0.2,0,0.2,0c0.1,0,0.1,0,0.2,0c0,0,0.2,0,0.2,0c0.1,0,0.2,0,0.2,0l0.3,0l0.1,0l0.1,0l0,-0.1l0.1,0l0.1,0l0.1,0c0,0,0.1,0,0.2,0l0.3,0c0.1,0,0.3,0,0.4,0c0.1,0,0.3,0,0.4,0c0.1,0,0.4,0,0.5,0c0,0.1,0,0.1,0,0.1l0,0.1l0.1,0c0,0,0,0.1,0,0.1l0,0.1l0,0.1l0.1,0l0,0.1l0,0.1l0.1,0c0,0,0,0.1,0,0.1l0,0.1l0.1,0l0,0.1c0,0.1,0,0.1,0,0.1l0,0.1c0,0,0.1,0,0.1,0.1c0,0,0,0.1,0,0.1c0,0.1,0,0.1,0.1,0.2l0,0.1c0,0,0.1,0.1,0.1,0.1l0,0.1l0,0.1l0,0.1l0.1,0c0,0.1,0,0.1,0,0.1l0,0.1l0,0.1l0.1,0c0,0,0,0.1,0,0.1l0,0.1l0,0.1l0.1,0l0,0.1c0,0.1,0,0.1,0,0.1l0.1,0l0,0.1l0,0.1l0,0.1c0,0,0.1,0,0.1,0c0,0.1,0,0.1,0,0.1l0,0.1l0,0.1l0.1,0c0,0,0,0.1,0,0.1l0,0.1l0,0.1l0.1,0l0,0.1l0,0.1l0,0.1l0.1,0l0,0.1c0,0,0,0.1,0,0.1l0,0.1c0.1,0,0.1,0,0.1,0l0,0.1l0,0.1c0,0,0,0.1,0,0.1c0,0,0.1,0.1,0.1,0.2c0,0,-0.1,0,-0.1,0.1l0,0.1l-0.1,0l0,0.1l0,0.1c0,0,-0.1,0,-0.1,0c0,0.1,0,0.1,0,0.1c0,0,-0.1,0,-0.1,0c0,0.1,0,0.1,0,0.1l0,0.1c-0.1,0,-0.1,0,-0.1,0l0,0.1l0,0.1l-0.1,0l0,0.1l0,0.1l-0.1,0c0,0,0,0.1,0,0.1c0,0,-0.1,0,-0.1,0c0,0,0,0.1,0,0.1c0,0,0,0.1,0,0.1l-0.1,0l0,0.1l0,0.1l-0.1,0l0,0.1l-0.1,0l0,0.1c0,0.1,0,0.1,0,0.1l-0.1,0c0,0.1,0,0.1,0,0.1c0,0.1,0,0.1,0,0.1c-0.1,0,-0.1,0,-0.1,0l0,0.1l0,0.1c-0.1,0,-0.1,0,-0.1,0l0,0.1c-0.1,0,-0.1,0,-0.1,0l0,0.1l0,0.1c0,0,-0.1,0,-0.1,0l0,0.1l0,0.1l-0.1,0l0,0.1c-0.1,0.1,-0.1,0.1,-0.1,0.1l0,0.1l-0.1,0c0,0,0,0.1,0,0.1c0,0,0,0.1,0,0.1c-0.1,0,-0.1,0,-0.1,0c0,0,0,0.1,0,0.1l-0.1,0l0,0.1l0,0.1c-0.1,0,-0.1,0.1,-0.1,0.1l0,0.1c-0.1,0,-0.1,0,-0.1,0l0,0.1l-0.1,0l0,0.1l0,0.1l-0.1,0l0,0.1l-0.1,0.1l0,0.1c-0.1,0,-0.1,0,-0.1,0.1c0,0.1,0,0.1,0,0.1c-0.1,0,-0.1,0,-0.1,0c0,0.1,0,0.1,0,0.1l0,0.1l-0.1,0c0,0,0,0.1,0,0.1c0,0,-0.1,0,-0.1,0.1l0,0.1c0,0,-0.1,0,-0.1,0l0,0.1c0,0,-0.1,0.1,-0.1,0.1c0,0.1,0,0.1,0,0.1c-0.1,0,-0.1,0,-0.1,0.1c0,0.1,0,0.1,0,0.1l-0.1,0c0,0,0,0.1,0,0.1l0,0.1c0,0,-0.1,0,-0.1,0l0,0.1l-0.1,0l0,0.1c0,0,0,0.1,0,0.1l-0.1,0l0,0.1l0,0.1l-0.1,0c0,0.1,0,0.1,0,0.1l0,0.1c0,0,-0.1,0,-0.1,0l0,0.1c-0.1,0,-0.1,0.1,-0.1,0.1l0,0.1l-0.1,0l0,0.1c0,0.1,0,0.1,0,0.1c-0.1,0,-0.1,0,-0.1,0l0,0.1l-0.1,0l0,0.1c0,0.1,0,0.1,0,0.1c-0.1,0,-0.1,0,-0.1,0l0,0.1c0,0.1,0,0.1,0,0.2l-0.1,0l0,0.1c-0.1,0,-0.1,0,-0.1,0c0,0.1,0,0.1,0,0.1c0,0,0,0.1,0,0.1l-0.1,0c0,0.1,0,0.1,0,0.1c0,0,-0.1,0.1,-0.1,0.1c0,0,0,0.1,0,0.1l-0.1,0l0,0.1l0,0.1l-0.1,0l0,0.1c0,0.1,-0.1,0.1,-0.1,0.1c0,0.1,0,0.1,0,0.1c0,0,-0.1,0,-0.1,0c0,0,0,0.1,0,0.1l0,0.1l-0.1,0l0,0.1l0,0.1l-0.1,0l0,0.1c-0.1,0.1,-0.1,0.1,-0.1,0.1c0,0.1,0,0.1,-0.1,0.1l0,0.1l0,0.1c0,0,-0.1,0,-0.1,0l0,0.1c-0.1,0,-0.1,0,-0.1,0l0,0.1c0,0.1,-0.1,0.1,-0.1,0.1l0,0.1l0,0.1c-0.1,0,-0.1,0,-0.1,0l0,0.1l-0.1,0l0,0.1l0,0.1l-0.1,0l0,0.1l0,0.1l-0.1,0l0,0.1l0,0.1l-0.1,0c0,0.1,0,0.1,0,0.1l0,0.1c0,0,-0.1,0,-0.1,0l0,0.1l-0.1,0c0,0,0,0.1,0,0.1l0,0.1c0,0,-0.1,0,-0.1,0l0,0.1c0,0.1,0,0.1,-0.1,0.1l0,0.1c-0.1,0,-0.1,0.1,-0.1,0.1c0,0.1,0,0.1,0,0.1c0,0,-0.1,0,-0.1,0c0,0,0,0.1,0,0.1l0,0.1l-0.1,0l0,0.1l-0.1,0l0,0.1l0,0.1l-0.1,0c0,0,0,0.1,0,0.1l0,0.1l-0.1,0l0,0.1l0,0.1l-0.1,0l0,0.1l-0.1,0l0,0.1l0,0.1c-0.1,0,-0.1,0,-0.1,0c0,0.1,0,0.1,0,0.1c0,0.1,-0.1,0.1,-0.1,0.1l0,0.1l-0.1,0.1l0,0.1l-0.1,0l0,0.1c0,0,0,0.1,-0.1,0.1l0,0.1l0,0.1l-0.1,0l0,0.1l-0.1,0l0,0.1c0,0.1,0,0.1,0,0.1l-0.1,0l0,0.1c-0.1,0.1,-0.1,0.1,-0.1,0.1c0,0.1,0,0.1,0,0.1l-0.1,0l0,0.1c0,0,0,0.1,-0.1,0.1c0,0,0,0.1,0,0.1l0,0.1l-0.1,0l0,0.1l-0.1,0l0,0.1c0,0,0,0.1,0,0.1l-0.1,0c0,0.1,0,0.1,0,0.1l0,0.1l-0.1,0l0,0.1l0,0.1c0,0,-0.1,0,-0.1,0l0,0.1l-0.1,0l0,0.1l0,0.1c-0.1,0,-0.1,0,-0.1,0l0,0.1l0,0.1l-0.1,0l0,0.1c0,0,-0.1,0,-0.1,0c0,0.1,0,0.1,0,0.2c-0.1,0,-0.1,0,-0.1,0l0,0.1l0,0.1l-0.1,0c0,0,0,0.1,0,0.1c0,0,0,0.1,-0.1,0.1l0,0.1c-0.1,0,-0.1,0,-0.1,0l0,0.1l0,0.1c-0.1,0,-0.1,0,-0.1,0l0,0.1c0,0,0,0.1,-0.1,0.1c0,0.1,0,0.1,0,0.1l-0.1,0l0,0.1c0,0.1,0,0.1,-0.1,0.1c0,0,-0.1,0.1,-0.1,0c0,0,-0.1,0,-0.1,0l-0.1,0l0,-0.1l-0.1,0l-0.1,0c-0.1,-0.1,-0.1,-0.1,-0.1,-0.1l-0.1,0l-0.1,0l0,-0.1l-0.1,0c0,0,-0.1,0,-0.1,0l0,-0.1c0,0,-0.1,0,-0.1,0l-0.1,0l0,-0.1l-0.1,0l-0.1,0l-0.1,0c0,0,0,-0.1,0,-0.1l-0.1,0l-0.1,0c0,0,0,-0.1,0,-0.1l-0.1,0l-0.1,0l0,-0.1l-0.1,0l-0.1,0l0,-0.1l-0.1,0l-0.1,0c0,0,-0.1,0,-0.1,0c0,-0.1,0,-0.1,0,-0.1c-0.1,0,-0.1,0,-0.1,0l-0.1,0l0,-0.1l-0.1,0c0,0,-0.1,0,-0.1,0l0,-0.1c-0.1,0,-0.1,0,-0.2,0l-0.1,0c0,0,0,-0.1,0,-0.1c0,0,-0.1,0,-0.1,0c0,0,-0.1,0,-0.1,0c0,0,0,-0.1,0,-0.1l-0.1,0l-0.1,0l0,-0.1l-0.1,0l-0.1,0l-0.1,-0.1l-0.1,0l-0.1,0l0,-0.1l-0.1,0l-0.1,0c0,-0.1,0,-0.1,0,-0.1l-0.1,0c-0.1,0,-0.1,0,-0.2,0c0,-0.1,0,-0.1,0,-0.1c0,0,-0.1,0,-0.1,-0.1c-0.1,0,-0.1,0,-0.1,0c-0.1,0,-0.1,0,-0.1,0c0,0,0,-0.1,-0.1,-0.1c0,0,-0.1,0,-0.1,0c0,-0.1,0,-0.1,0,-0.1l-0.1,0l-0.1,0l0,-0.1l-0.1,0l-0.1,0c0,0,-0.1,0,-0.1,0c0,0,-0.1,0,-0.1,0c0,0,0,-0.1,0,-0.1c0,0,-0.1,0,-0.1,0c-0.1,0,-0.1,0,-0.1,0l0,-0.1l-0.1,0l-0.1,0l0,-0.1l-0.1,0c-0.1,0,-0.1,0,-0.1,0l0,-0.1l-0.1,0c0,0,-0.1,0,-0.1,0c-0.1,-0.1,-0.1,-0.1,-0.1,-0.1l-0.1,0l-0.1,0l0,-0.1c-0.1,0,-0.1,0,-0.1,0l-0.1,0l0,-0.1c0,0,-0.1,0,-0.1,0l-0.1,0l-0.1,0l0,-0.1l-0.1,0l-0.1,0l0,-0.1c0,0,-0.1,0,-0.1,0c-0.1,0,-0.1,0,-0.1,0l0,-0.1c-0.1,0,-0.1,0,-0.1,0l-0.1,0l-0.1,0l0,-0.1l-0.1,0l-0.1,0c0,0,0,-0.1,0,-0.1l-0.1,0c0,0,-0.1,0,-0.1,-0.1c0,0,-0.1,0,-0.1,0c-0.1,0,-0.1,0,-0.1,0l0,-0.1l-0.1,0c0,-0.2,0,-0.2,0.1,-0.3l0,-0.1c0.1,0,0.1,0,0.1,-0.1l0,-0.1c0,0,0.1,0,0.1,0Z" class="g3_1" />
<path fill-rule="evenodd" d="M1367.4,52.8l0,0c0,0,0,0.1,0,0.1c0.1,0,0.1,0,0.1,0l0,0.1c0.1,0,0.1,0,0.1,0l0,0.1c0.1,0,0.1,0,0.1,0c0,0.1,0,0.1,0,0.1c0.1,0,0.1,0,0.1,0c0,0.1,0,0.1,0.1,0.1l0,0.1l0.1,0c0.1,0,0.2,0.1,0.2,0.1l0,0.1c0.1,0,0.1,0,0.2,0c0,0.1,0,0.1,0,0.1c0,0,0.1,0,0.1,0l0.1,0c0,0.1,0,0.1,0,0.1c0.1,0,0.1,0,0.1,0l0,0.1c0.1,0,0.1,0,0.1,0l0.1,0c0,0,0.1,0,0.1,0.1l0.1,0l0.1,0l0,0.1l0.1,0l0.1,0l0,0.1l0.1,0l0.1,0l0.1,0l0.1,0l0,0.1l0.1,0l0.1,0c0.1,0,0.2,0,0.2,0c0.1,0.1,0.3,0.1,0.4,0.1l0.1,0l0.1,0l0.1,0l0,0.1l0.1,0l0.1,0l0.3,0c0.1,0,0.2,0,0.2,0l0.1,0l0.1,0l0.1,0l0.2,0l0.1,0l0.1,0l0,-0.1l0.1,0c0,0,0.1,0,0.1,0l0.1,0c0,0,0,0.1,0,0.1l0.1,0l0,0.1c0,0.1,0,0.1,0,0.1l0.1,0l0,0.1c0,0.1,0,0.1,0,0.1l0,0.1l0.1,0l0,0.1l0,0.1l0.1,0l0,0.1c0,0.1,0,0.1,0,0.1l0.1,0l0,0.1c0,0.1,0,0.1,0,0.1l0.1,0l0,0.1l0,0.1l0.1,0l0,0.1l0.1,0l0,0.1c0,0,0,0.1,0,0.1l0.1,0l0,0.1c0.1,0,0.1,0,0.1,0.1l0,0.1c0,0,0.1,0,0.1,0l0,0.1l0.1,0c0,0,0,0.1,0,0.1l0.1,0.1c0,0,0.1,0.1,0.1,0.1c0,0.1,0.1,0.1,0.1,0.1l0.1,0.1l0.1,0c0,0.1,0,0.1,0,0.1c0.1,0,0.1,0,0.1,0.1l0.1,0c0,0,0,0.1,0,0.1l0.1,0l0.1,0c0,0.1,0,0.1,0,0.1l0.1,0l0,0.1l0.1,0l0,0.1c0.1,0,0.1,0,0.1,0l0.1,0c0,0.1,0,0.1,0,0.1c0.1,0,0.1,0,0.1,0c0,0,0.1,0.1,0.1,0.1l0.1,0l0,0.1l0.1,0c0,0,0.1,0,0.1,0l0,0.1l0.1,0l0.1,0l0,0.1l0.1,0l0.1,0l0,0.1c0,0,0.1,0,0.1,0c0,0,0.1,0,0.1,0c0,0.1,0,0.1,0,0.1l0.1,0c0,0,0.1,0,0.1,0l0,0.1l0.1,0l0.1,0c0,0,0,0.1,0,0.1l0.1,0c0,0,0.1,0,0.1,0l0,0.1c0.1,0,0.1,0,0.1,0l0.1,0l0,0.1l0.1,0l0.1,0l0,0.1l0.1,0c0,0,0,0.1,0,0.1c0.1,0,0.1,0,0.1,0l0.1,0c0,0,0,0.1,0,0.1c0,0,0.1,0,0.1,0.1l0.1,0l0,0.1l0.1,0l0,0.1c0.1,0,0.1,0,0.1,0c0,0,0,0.1,0,0.1l0.1,0l0,0.1c0.1,0,0.1,0,0.1,0c0,0.1,0,0.1,0,0.1l0,0.1c0,0,0.1,0,0.1,0l0,0.1c0,0,0.1,0,0.1,0l0,0.1l0,0.1l0.1,0c0,0.1,0,0.1,0,0.1l0,0.1c0,0.1,0,0.1,0.1,0.1l0,0.1l0,0.1c0,0.1,0,0.1,0,0.1l0,0.1l0.1,0l-0.1,0c0,0.1,0.1,0.1,0.1,0.1c-0.1,0,-0.1,0,-0.1,0.1c0,0.1,0,0.2,0,0.3l0,0.1c0,0,0,0.1,0,0.1l-0.1,0l0,0.1l0,0.1c0,0,-0.1,0,-0.1,0c0,0.1,-0.1,0.1,-0.1,0.1l-0.1,0l0,0.1c0,0,-0.1,0,-0.1,0c0,0,-0.1,0,-0.1,0l-0.1,0l0,0.1c-0.1,0,-0.2,0,-0.3,0l-0.1,0c-0.1,0,-0.2,0,-0.2,0c-0.2,0,-0.4,0,-0.5,-0.1c0,0,-0.1,0,-0.1,0c-0.1,0,-0.1,0,-0.1,0l-0.1,0l-0.1,0l0,-0.1c0,0,-0.1,0,-0.1,0c-0.1,0,-0.1,0,-0.1,0l-0.1,0c0,-0.1,0,-0.1,-0.1,-0.1l-0.1,0l-0.1,0l-0.1,0c0,0,0,-0.1,0,-0.1l-0.1,0c-0.1,0,-0.1,0,-0.1,0l-0.1,0l0,-0.1l-0.1,0l-0.1,0l-0.1,0l0,-0.1l-0.1,0l-0.1,0c-0.1,0,-0.1,0,-0.1,-0.1c-0.1,0,-0.1,0,-0.1,0l-0.1,0c0,0,0,-0.1,0,-0.1c0,0,-0.1,0,-0.1,0c-0.1,0,-0.1,0,-0.2,0l0,-0.1c0,0,-0.1,0,-0.1,0c0,0,-0.1,0,-0.1,0c0,-0.1,0,-0.1,0,-0.1l-0.1,0l0,-0.1c0,0,-0.1,0,-0.1,0l-0.1,0l0,-0.1l-0.1,0l-0.1,0l0,-0.1c-0.1,0,-0.1,0,-0.1,0c-0.1,-0.1,-0.1,-0.1,-0.1,-0.1l-0.1,0c0,-0.1,0,-0.1,-0.1,-0.1c-0.1,0,-0.1,-0.1,-0.1,-0.1c0,0,-0.1,0,-0.1,0c0,0,0,-0.1,0,-0.1l-0.1,0c0,0,-0.1,-0.1,-0.1,-0.1l-0.1,0c0,-0.1,0,-0.1,0,-0.1c0,0,-0.1,0,-0.1,0l0,-0.1l-0.1,0c-0.1,-0.1,-0.1,-0.1,-0.1,-0.1l-0.1,0l0,-0.1c-0.1,0,-0.1,0,-0.1,0l0,-0.1c0,0,-0.1,0,-0.1,0l0,-0.1l-0.1,0c0,0,0,-0.1,0,-0.1c0,0,-0.1,0,-0.1,0c0,0,0,-0.1,0,-0.1c-0.1,0,-0.1,0,-0.1,0l0,-0.1c-0.1,0,-0.1,0,-0.1,0l-0.1,0c0,-0.1,0,-0.1,0,-0.1L1371.4,59c-0.1,-0.1,-0.1,-0.1,-0.1,-0.1c-0.1,0,-0.1,0,-0.1,0c0,-0.1,0,-0.1,0,-0.1c-0.1,0,-0.1,0,-0.1,0l0,-0.1l-0.1,0c0,0,0,-0.1,0,-0.1c-0.1,0,-0.1,0,-0.1,-0.1l-0.1,0c0,0,0,-0.1,0,-0.1l-0.1,0l0,-0.1l-0.1,0c0,-0.1,-0.1,-0.1,-0.1,-0.1l0,-0.1c-0.1,0,-0.1,0,-0.1,0c0,0,0,-0.1,-0.1,-0.1l0,-0.1c-0.1,0,-0.1,0,-0.1,0c0,-0.1,0,-0.1,0,-0.1c-0.1,0,-0.1,0,-0.1,-0.1c-0.1,0,-0.1,0,-0.1,0l0,-0.1l-0.1,0l-0.1,0c0,0,0,-0.1,0,-0.1c-0.1,0,-0.1,0,-0.1,-0.1l-0.1,0c0,0,0,-0.1,0,-0.1c0,0,-0.1,0,-0.1,0l-0.1,-0.1l-0.1,0c0,0,0,-0.1,0,-0.1c-0.1,0,-0.1,0,-0.1,0c0,0,-0.1,0,-0.1,-0.1l-0.1,0l0,-0.1l-0.1,0l-0.1,0l-0.1,0c0,0,-0.1,0,-0.1,-0.1c-0.1,0,-0.1,0,-0.1,0l-0.2,0c0,0,0,0.1,0,0.1l-0.1,0l-0.1,0c0,0.1,0,0.1,0,0.1l-0.1,0l0,0.1l0,0.1l-0.1,0c0,0.1,0,0.1,0,0.1c0,0,-0.1,0,-0.1,0l0,0.1l0,0.1c-0.1,0,-0.1,0,-0.1,0c0,0,0,0.1,0,0.1c-0.1,0,-0.1,0,-0.1,0c-0.1,0,-0.2,0,-0.2,-0.1c-0.1,0,-0.1,0,-0.1,0l-0.1,0l-0.1,0l0,-0.1c-0.1,0,-0.1,0,-0.1,0c0,-0.1,0,-0.1,0,-0.1l-0.1,0c0,0,-0.1,0,-0.1,0c0,-0.1,0,-0.1,-0.1,-0.1l-0.1,0l-0.1,0c0,0,0,-0.1,0,-0.1l-0.1,0c0,0,-0.1,0,-0.1,-0.1l-0.1,0l-0.1,-0.1l-0.1,0c0,0,0,-0.1,0,-0.1c-0.1,0,-0.1,0,-0.1,0l-0.1,0l0,-0.1l-0.1,0c-0.1,0,-0.1,0,-0.1,0l-0.1,0l0,-0.1c-0.1,0,-0.1,0,-0.1,0l-0.1,0c0,0,0,-0.1,0,-0.1l-0.1,0l-0.1,0c0,0,0,-0.1,0,-0.1l-0.1,0c-0.1,0,-0.1,0,-0.1,0l0,-0.1l-0.1,0c-0.1,0,-0.1,0,-0.1,0c0,0,0,-0.1,-0.1,-0.1l-0.1,0l0,-0.1l-0.1,0c0,0,-0.1,0,-0.1,0l0,-0.1l-0.1,0l-0.1,0l0,-0.1l-0.1,0l-0.1,0c0,0,0,-0.1,0,-0.1l-0.1,0c-0.1,-0.1,-0.1,-0.1,-0.1,-0.1c0,0,0,-0.1,0,-0.1l0.1,0c0,-0.1,0,-0.1,0,-0.1l0,-0.1c0.1,0,0.1,0,0.1,0l0,-0.1l0.1,0c0,0,0,-0.1,0,-0.1l0,-0.1l0.1,0l0,-0.1c0,-0.1,0,-0.1,0,-0.1c0,-0.1,0.1,-0.1,0.1,-0.1l0,-0.1c0,0,0,-0.1,0,-0.1c0.1,-0.1,0.1,-0.2,0.1,-0.2l0,-0.1c0,-0.1,0,-0.1,0,-0.1l0,-0.1l0,-0.1l0.1,0l0,-0.1c0,-0.1,0,-0.1,0,-0.2c0,0,0,-0.1,0,-0.1c0,-0.1,0,-0.1,0,-0.1l0,-0.1l0.1,0l0,-0.1c0.1,0,0.1,-0.1,0.1,-0.1c0,-0.1,0,-0.1,0,-0.1l0,-0.1l0.1,0c0,0,0,-0.1,0,-0.1l0,-0.1c0,0,0.1,0,0.1,0l0,-0.1l0,-0.1c0,0,0.1,0,0.1,0l0,-0.1l0,-0.1c0.1,0,0.1,0,0.1,0c0,0,0,-0.1,0,-0.1l0.1,0l0,-0.1l0.1,0l0,-0.1l0.1,0c0,-0.1,0,-0.1,0,-0.1l0.1,0c0,-0.1,0,-0.1,0,-0.1l0.1,0l0,-0.1c0.1,0,0.1,0,0.2,-0.1c0.1,0,0.1,0,0.1,0l0,-0.1c0,0,0.1,0,0.1,0l0.1,0l0,-0.1c0.1,0,0.1,0,0.1,0c0.1,-0.1,0.2,-0.1,0.2,0l0.1,0c0,0,0,0.1,0,0.1l0.1,0l0,0.1l0.1,0.1l0,0.1c0,0,0.1,0,0.1,0c0,0,0,0.1,0,0.1c0.1,0.1,0.1,0.1,0.1,0.1l0,0.1c0.1,0,0.1,0,0.1,0c0,0,0,0.1,0.1,0.1l0,0.1l0.1,0l0,0.1c0,0.1,0,0.1,0.1,0.1l0,0.1c0.1,0,0.1,0,0.1,0c0,0,0,0.1,0,0.1c0.1,0,0.1,0,0.1,0Z" class="g3_1" />
<path fill-rule="evenodd" d="M1389,40.4c-0.1,0,-0.1,0,-0.1,0c0,-0.1,0,-0.1,0,-0.1c0,0,0,-0.1,0,-0.1l0,-0.1c0,0,0,-0.1,0,-0.1l-0.1,0c0,-0.1,0,-0.1,0,-0.1l0,-0.1l0,-0.1l-0.1,0l0,-0.1l0,-0.1l-0.1,0l0,-0.1c0,0,0,-0.1,0,-0.1l-0.1,-0.1c0,0,0,-0.1,0,-0.1c0,0,0,-0.1,-0.1,-0.2c0,0,0,-0.1,0,-0.1c0,-0.1,0,-0.1,0,-0.1l-0.1,0c0,0,0,-0.1,0,-0.1c0,-0.1,0,-0.1,0,-0.1l0,-0.1l-0.1,0l0,-0.1l0,-0.1c-0.1,-0.1,-0.1,-0.1,-0.1,-0.1l0,-0.1l0,-0.1l-0.1,0c0,0,0,-0.1,0,-0.1l0,-0.1l0,-0.1l-0.1,0l0,-0.1l0,-0.1c0,-0.1,0,-0.1,0,-0.1l-0.1,0l0,-0.1c0,0,0,-0.1,0,-0.1l0,-0.1l-0.1,0c0,-0.1,0,-0.1,0,-0.1l0,-0.1c0,0,-0.1,-0.1,-0.1,-0.1l0,-0.1l0,-0.1c-0.1,0,-0.1,0,-0.1,0l0,-0.1c0,-0.1,0,-0.1,0,-0.2l0,-0.1l-0.1,0l0,-0.1c0,-0.1,0,-0.1,0,-0.1l-0.1,0c0,-0.1,0,-0.1,0,-0.1c0,0,0,-0.1,0,-0.1l0,-0.1l-0.1,0l0,-0.1l0,-0.1l-0.1,0c0,-0.1,0,-0.1,0,-0.1l0,-0.1c0,-0.1,0,-0.1,0,-0.1c-0.1,0,-0.1,0,-0.1,-0.1l0,-0.1l0,-0.1c-0.1,0,-0.1,0,-0.1,-0.1l0,-0.1l-0.1,0c0,-0.1,0,-0.1,0,-0.2l0,-0.1c-0.1,0,-0.1,-0.1,-0.1,-0.1c0,0,0,-0.1,0,-0.1l0,-0.1l-0.1,0c0,0,0,-0.1,0,-0.1l0,-0.1c0,-0.1,0,-0.1,-0.1,-0.1c0,0,0,-0.1,0,-0.1l0,-0.1l-0.1,0c0,-0.1,0,-0.1,0,-0.1l0,-0.1l0,-0.1c0,0,0,-0.1,-0.1,-0.1c0,-0.1,0,-0.1,0,-0.1l0,-0.1c0,0,-0.1,0,-0.1,-0.1l0,-0.1l0,-0.1c0,0,-0.1,0,-0.1,0l0,-0.1c0,-0.1,0,-0.1,0,-0.1c0,-0.1,0,-0.1,0,-0.1l-0.1,0c0,0,0,-0.1,0,-0.1c0,0,0,-0.1,0,-0.1l0,-0.1l-0.1,0c0,-0.1,0,-0.1,0,-0.2l0,-0.1l-0.1,0l0,-0.1l0,-0.1l0,-0.1l-0.1,0c0,-0.1,0,-0.1,0,-0.2c0,0,0.1,0,0.1,0l0.1,0c0.2,-0.1,0.4,-0.1,0.5,-0.1c0.1,0,0.1,0,0.1,0c0,0,0.1,0,0.1,0l0.1,0c0.1,0,0.2,0,0.4,0l0.1,0c0.1,0,0.3,0,0.3,0l0.3,0c0.1,0,0.2,0,0.2,0c0.1,0,0.2,0,0.3,0c0.1,0,0.2,0,0.4,0l0.2,0c0.3,0,0.6,0,0.9,0l0.5,-0.1c0.1,0,0.2,0,0.2,0c0.1,0,0.2,0,0.2,0l0.2,0l0.1,0l0.1,0l0.1,0c0.1,0,0.1,0,0.2,0l0.1,0l0.2,0c0.2,0,0.4,0,0.6,0c0,0,0.1,-0.1,0.1,-0.1c0.1,0,0.1,0.1,0.1,0.1c0.3,0,0.5,0,0.8,0l0,-0.1c0.1,0,0.2,0.1,0.2,0.1c0.2,0,0.3,-0.1,0.5,-0.1c0,0,0.1,0.1,0.1,0.1l0,-0.1l0.1,0c0.1,0,0.2,0,0.2,0l0.1,0c0,0,0.2,0.1,0.2,0l0.2,0c0.1,0,0.2,0,0.3,0c0.1,0.1,0.2,0,0.2,0l0.1,0l0,0.1c0,0,0.1,0,0.1,0c0,0,0,0.1,0,0.1l0,0.1l0.1,0l0,0.1c0,0,0,0.1,0,0.1l0.1,0c0,0.1,0,0.1,0,0.1l0,0.1l0,0.1l0.1,0c0,0,0,0.1,0,0.1c0,0,0,0.1,0,0.1c0.1,0,0.1,0,0.1,0l0,0.1c0,0,0,0.1,0,0.1l0,0.1l0.1,0c0,0,0,0.1,0,0.1l0,0.1l0.1,0l0,0.1l0,0.1c0,0.1,0,0.1,0,0.1l0.1,0l0,0.1c0,0,0,0.1,0,0.1c0.1,0.1,0.1,0.1,0.1,0.2l0,0.1l0.1,0l0,0.1c0,0,0,0.1,0,0.1l0,0.1l0.1,0c0,0.1,0,0.1,0,0.1l0,0.1l0.1,0c0,0.1,0,0.1,0,0.1l0,0.1l0,0.1l0.1,0l0,0.1c0,0.1,0,0.1,0,0.1c0,0.1,0.1,0.1,0.1,0.1c0,0.1,0,0.1,0,0.1l0,0.1c0,0,0.1,0,0.1,0.1l0,0.1c0,0.1,0.1,0.1,0.1,0.2c0,0.1,0,0.1,0,0.1c0,0,0,0.1,0,0.1l0.1,0l0,0.1l0,0.1c0.1,0,0.1,0.1,0.1,0.1l0,0.1c0,0.1,0,0.1,0,0.1c0.1,0,0.1,0,0.1,0.1c0,0.1,0,0.1,0,0.1l0,0.1l0.1,0c0,0,0,0.1,0,0.1l0,0.1l0.1,0l0,0.1l0,0.1l0,0.1l0.1,0c0,0,0,0.1,0,0.1c0,0.1,0,0.1,0,0.1c0,0.1,0,0.1,0,0.1l0.1,0l0,0.1l0,0.1c0,0,0,0.1,0.1,0.1l0,0.1l0,0.1c0.1,0,0.1,0,0.1,0c0,0,0,0.1,0,0.1l0,0.1l0,0.1l0.1,0c0,0.1,0,0.1,0,0.1l0,0.1l0.1,0l0,0.1l0,0.1c0,0.1,0,0.1,0,0.1l0.1,0c0,0,0,0.1,0,0.1l0,0.1c0,0,0,0.1,0,0.1l0.1,0l0,0.1l0,0.1c0,0,0,0.1,0.1,0.1c0,0.1,0,0.1,0,0.1c0,0,0,0.1,0,0.1l0.1,0c0,0,0,0.1,0,0.1l0,0.1l0,0.1c0,0,0.1,0,0.1,0l0,0.1l0,0.1l0,0.1l0.1,0c0,0.1,0,0.1,0,0.1l0,0.1c0,0,0.1,0,0.1,0l0,0.1c0,0.1,0,0.1,0,0.1l0,0.1l0.1,0c0,0,0,0.1,0,0.1l0,0.1l0.1,0c0,0,0,0.1,0,0.1l0,0.1c0,0,0,0.1,0,0.1c0,0,0.1,0.1,0.1,0.1l0,0.1l0.1,0.1c0,0,0,0.1,0,0.1c0,0,0,0.1,0,0.1l0.1,0l0,0.1l0,0.1l0,0.1l0.1,0l0,0.1c0,0,0,0.1,0,0.1l0,0.1l0.1,0l0,0.1c0,0.1,0,0.1,0,0.1l0,0.1l0.1,0l0,0.1c0,0,0,0.1,0.1,0.1c0,0.1,0,0.1,0,0.1l0,0.1c0.1,0,0.1,0.1,0.1,0.1c0,0.1,0,0.1,0,0.1l0,0.1l0,0.1l0.1,0l0,0.1c0,0.1,0,0.1,0,0.1l0.1,0l0,0.1l0,0.1c0,0.1,0,0.1,0.1,0.1c0,0,0,0.1,0,0.1l0,0.1c0,0,0,0.1,0,0.1l0.1,0l0,0.1l0,0.1l0.1,0l0,0.1c0,0.1,0,0.1,0,0.1c0,0.1,0,0.1,0,0.1l0.1,0c0,0.1,0,0.1,0,0.1l0,0.1l0.1,0c0,0.1,0,0.1,0,0.1l0,0.1l0,0.1l0.1,0l0,0.1c0,0.1,0,0.1,0,0.1c0,0,0,0.1,0,0.1l0.1,0l0,0.1c0,0,0,0.1,0,0.1l0,0.1l0.1,0c0,0.1,0,0.1,0,0.1l0,0.1c0,0,0.1,0,0.1,0l0,0.1l0,0.1l0,0.1l0.1,0l0,0.1l0,0.1c0,0,0,0.1,0,0.1c0.1,0,0.1,0,0.1,0l0,0.1c0,0,0,0.1,0,0.1l0.1,0l0,0.1l0,0.1c0,0,0,0.1,0,0.1l0.1,0l0,0.1l0,0.1c0.1,0,0.1,0.1,0.1,0.1l0,0.1l0.1,0l0,0.1l0,0.1l0,0.1c0,0.1,0.1,0.1,0.1,0.1c0,0,0,0.1,0,0.1l0,0.1l0.1,0l0,0.1c0,0.1,0,0.1,0,0.1c0,0,0,0.1,0,0.1l0.1,0l0,0.1c0,0,0,0.1,0,0.1c0,0,0.1,0.1,0.1,0.1c0,0.1,0,0.1,0,0.1l0,0.1l0.1,0c0,0,0,0.1,0,0.1l0.1,0l0,0.2l0,0.1l0,0.1l0.1,0l0,0.1l0,0.1c0,0,0,0.1,0,0.1l0.1,0l0,0.1l0,0.1l0.1,0.1c0,0.1,0,0.1,0,0.1l0,0.1c0,0,0.1,0,0.1,0.1l0,0.1l0.1,0c0,0.1,0,0.1,0,0.1c0,0,0,0.1,0,0.1c0,0,0,0.1,0,0.1c0.1,0,0.1,0.1,0.1,0.1l0,0.1c0,0.1,0,0.1,0,0.1l0.1,0c0,0,0,0.1,0,0.1l0,0.1l0.1,0l0,0.1c0,0.1,0,0.1,0,0.1c0,0,0,0.1,0,0.1c0.1,0,0.1,0,0.1,0c0,0.1,0,0.1,0,0.2l0,0.1c0.1,0,0.1,0,0.1,0l0,0.1l0,0.1l0,0.1l0.1,0c0,0,0,0.1,0,0.1c0,0.1,0,0.1,0,0.1l0.1,0c0,0.1,0,0.1,0,0.1c0,0.1,0,0.1,0,0.1c0,0,0,0.1,0.1,0.1c0,0,0,0.1,0,0.1l0,0.1l0,0.1l0.1,0c0,0,0,0.1,0,0.1c0,0,0,0.1,0,0.1c0.1,0,0.1,0,0.1,0c0,0.1,0,0.1,0,0.1l0,0.1c0,0.1,0.1,0.1,0.1,0.1l0,0.1l0,0.1c0,0,0.1,0.1,0.1,0.1l-0.1,0c0,0,0,0.1,0,0.1c0,0,-0.1,0,-0.1,0l0,0.1l-0.1,0c0,0,-0.1,0,-0.1,0l-0.1,0l-0.1,0l0,0.1l-0.1,0l-0.1,0l-0.1,0l-0.1,0l0,0.1l-0.1,0l-0.1,0l-0.1,0c0,0,-0.1,0,-0.1,0l0,0.1c-0.1,0,-0.1,0,-0.1,0l-0.1,0l-0.1,0l-0.1,0c-0.1,0.1,-0.1,0.1,-0.2,0.1l-0.1,0l-0.1,0l0,0.1l-0.1,0l-0.1,0c0,0,-0.1,0,-0.1,0c-0.1,0,-0.1,0,-0.1,0l0,0.1l-0.1,0c0,0,-0.1,0,-0.1,0c0,0,-0.1,0,-0.1,0c0,0,-0.1,0,-0.1,0l-0.1,0l0,0.1l-0.1,0l-0.1,0l-0.1,0l0,0.1l-0.1,0c0,0,-0.1,0,-0.1,0l-0.1,0l-0.1,0l-0.1,0l0,0.1l-0.1,0l-0.1,0l-0.1,0c0,0,-0.1,0,-0.1,0.1l-0.1,0l-0.1,0l-0.1,0l0,0.1l-0.1,0l-0.1,0l-0.1,0c-0.1,0,-0.1,0,-0.2,0l0,0.1l-0.1,0l-0.1,0c0,0,-0.1,0,-0.1,0l-0.1,0.1l-0.2,0c-0.1,0,-0.1,0,-0.1,0c-0.1,0,-0.1,0.1,-0.1,0.1l-0.1,0l-0.1,0l-0.1,0l-0.1,0l-0.1,0l0,0.1c-0.1,0,-0.1,0,-0.1,0l-0.1,0l-0.1,0l0,0.1l-0.1,0l-0.1,0l-0.1,0l-0.1,0l0,0.1l-0.1,0c0,0,-0.2,0,-0.3,0c0,0,-0.1,0,-0.1,0l0,0.1l-0.1,0l-0.1,0l-0.1,0l0,0.1c0,0,-0.1,0,-0.1,0c-0.1,0,-0.1,0,-0.2,0l-0.1,0l0,0.1c-0.1,0,-0.1,0,-0.2,0l-0.1,0c-0.1,0,-0.1,0,-0.1,0l-0.1,0c0,0.1,0,0.1,0,0.1l-0.1,0l-0.1,0c0,0,-0.1,0,-0.1,0l-0.1,0l0,0.1l-0.1,0c-0.1,0,-0.2,0,-0.2,0c-0.1,0,-0.1,-0.1,-0.1,-0.1l0,-0.1l-0.1,0c0,-0.1,0,-0.1,0,-0.1c0,-0.1,0,-0.1,0,-0.1c0,0,0,-0.1,0,-0.1l-0.1,0l0,-0.1c0,-0.1,0,-0.1,0,-0.1l0,-0.1l-0.1,0c0,-0.1,0,-0.1,0,-0.1l0,-0.1c-0.1,-0.1,-0.1,-0.1,-0.1,-0.1c0,-0.1,0,-0.1,0,-0.1l0,-0.1l-0.1,-0.1c0,-0.1,0,-0.1,0,-0.1l0,-0.1l-0.1,0c0,0,0,-0.1,0,-0.1c0,-0.1,0,-0.1,0,-0.1l0,-0.1l-0.1,0l0,-0.1c0,-0.1,0,-0.1,0,-0.1c0,-0.1,0,-0.1,0,-0.1l-0.1,0l0,-0.1l0,-0.1l-0.1,0l0,-0.1c0,-0.1,0,-0.1,0,-0.1c0,0,0,-0.1,0,-0.1l-0.1,0l0,-0.1c0,-0.1,0,-0.1,0,-0.1l0,-0.1l-0.1,0l0,-0.1l0,-0.1l0,-0.1l-0.1,0c0,0,0,-0.1,0,-0.1l0,-0.1c0,0,-0.1,0,-0.1,-0.1l0,-0.1l0,-0.1l-0.1,0l0,-0.1l0,-0.1l0,-0.1c0,-0.1,0,-0.1,0,-0.1l-0.1,0l0,-0.1l0,-0.1l-0.1,0l0,-0.1c0,-0.1,0,-0.1,0,-0.1c0,0,0,-0.1,0,-0.1l-0.1,0l0,-0.1c0,-0.1,0,-0.1,0,-0.1l-0.1,-0.1c0,0,0,-0.1,0,-0.1l0,-0.1L1392.4,50c0,0,0,-0.1,0,-0.1c0,0,0,-0.1,0,-0.1l-0.1,0l0,-0.1l0,-0.1c0,0,0,-0.1,0,-0.1l-0.1,0c0,0,0,-0.1,0,-0.1c-0.1,-0.1,0,-0.2,0,-0.2l-0.1,0l0,-0.1l0,-0.1l0,-0.1l-0.1,0c0,0,0,-0.1,0,-0.1c0,-0.1,0,-0.1,0,-0.1l0,-0.1c-0.1,0,-0.1,0,-0.1,0c0,0,0,-0.1,0,-0.1l0,-0.1l-0.1,0l0,-0.1l0,-0.1c0,-0.1,0,-0.1,0,-0.1l-0.1,0c0,-0.1,0,-0.1,0,-0.1c0,-0.1,0,-0.1,0,-0.1l0,-0.1l-0.1,0l0,-0.1c0,-0.1,0,-0.1,0,-0.1l0,-0.1l-0.1,-0.1c0,-0.1,0,-0.1,0,-0.1c0,0,-0.1,0,-0.1,-0.1c0,0,0,-0.1,0,-0.1c0,0,0,-0.1,0,-0.1c-0.1,0,-0.1,0,-0.1,0c0,-0.1,0,-0.1,0,-0.1l0,-0.1l-0.1,0l0,-0.1c0,0,0,-0.1,0,-0.1l0,-0.1c-0.1,0,-0.1,0,-0.1,0l0,-0.1c0,-0.1,0,-0.1,0,-0.1l0,-0.1l-0.1,0c0,0,0,-0.1,0,-0.1l0,-0.1l0,-0.1l-0.1,0l0,-0.1l0,-0.1c0,0,-0.1,0,-0.1,0l0,-0.1l0,-0.1l0,-0.1c-0.1,0,-0.1,-0.1,-0.1,-0.1l0,-0.1c0,0,0,-0.1,0,-0.1l-0.1,0l0,-0.1l0,-0.1l-0.1,0l0,-0.1c0,-0.1,0,-0.1,0,-0.1c0,-0.1,0,-0.1,0,-0.1c0,0,-0.1,-0.1,-0.1,-0.1c0,0,0,-0.1,0,-0.1l0,-0.1c-0.1,-0.1,-0.1,-0.1,-0.1,-0.1l0,-0.1c0,-0.1,0,-0.1,0,-0.1c0,0,-0.1,0,-0.1,0c0,0,0,-0.1,0,-0.1l0,-0.1l0,-0.1l-0.1,0c0,0,0,-0.1,0,-0.1l0,-0.1l0,-0.1c-0.1,0,-0.1,0,-0.1,0c0,0,0,-0.1,0,-0.1l0,-0.1l-0.1,0c0,-0.1,0,-0.1,0,-0.1l0,-0.1l0,-0.1c-0.1,0,-0.1,-0.1,-0.1,-0.2c0,-0.1,0,-0.1,0,-0.1l-0.1,0c0,0,0,-0.1,0,-0.1l0,-0.1l0,-0.1c0,0,-0.1,0,-0.1,0c0,0,0,-0.1,0,-0.1l0,-0.1c0,-0.1,-0.1,-0.1,-0.1,-0.1l0,-0.1c0,-0.1,0,-0.1,0,-0.1l-0.1,0l0,-0.1l0,-0.1c0,-0.1,0,-0.1,0,-0.1l0,-0.1l-0.1,0c0,-0.1,0,-0.1,0,-0.1l0,-0.1l-0.1,0l0,-0.1c0,0,0,-0.1,0,-0.1c0,-0.1,0,-0.1,0,-0.2l-0.1,0l0,-0.1c0,0,0,-0.1,0,-0.1c-0.1,0,-0.1,-0.1,-0.1,-0.1c0,-0.1,0,-0.1,0,-0.1Z" class="g3_1" />
<path fill-rule="evenodd" d="M1397.3,57l0,0.1c0,0,0,-0.1,0,-0.1c0,0,0,0.1,0,0.1c0,0,0.1,-0.1,0.1,-0.1c0,0,0,0.1,0,0.1c0,0,0,-0.1,0,-0.1l0,0.1c0,-0.1,0,-0.1,0,-0.1l0,0.1c0,0,0.1,0,0.1,0c0.1,0,0.1,0,0.1,0c0.1,0,0.1,0,0.1,0c0.1,0,0.1,0,0.1,0l0.1,0l0.1,0c0,0,0.1,0,0.1,0c0.1,0,0.2,0,0.3,0c0.1,0,0.1,0,0.2,0c0,0,0.1,0,0.1,0c0,0,0.1,0,0.1,0c0,0,0.1,0,0.1,-0.1l0,0.1c0,-0.1,0,-0.1,0,-0.1c0,0,0.1,0,0.1,0c0.1,0,0.1,0,0.1,0c0,0,0.1,0,0.1,0c0.1,0,0.1,0,0.1,0l0,-0.1c0,0,0,0.1,0.1,0.1c0,-0.1,0,-0.1,0,-0.1c0.1,0,0.1,0,0.1,0c0,0,0.1,0,0.1,0l0,-0.1c0,0.1,0,0.1,0,0.1c0,0,0.1,-0.1,0.1,-0.1c0,0,0.1,0,0.1,0c0.1,0,0.1,0,0.1,0l0,-0.1l0.1,0l0.1,0l0.1,0l0,-0.1c0.1,0,0.1,0,0.1,0c0.1,0,0.1,-0.1,0.1,-0.1c0.2,0,0.3,-0.1,0.4,-0.1c0,-0.1,0,-0.1,0,-0.1c0,0,0.1,0,0.1,0c0,0,0,-0.1,0.1,-0.1c0,0,0.1,0,0.1,0c0,0,0,-0.1,0,-0.1c0.1,0,0.1,0,0.1,0c0.1,-0.1,0.2,-0.2,0.3,-0.2c0,0,0.1,-0.1,0.1,-0.1c0.1,-0.1,0.1,-0.1,0.1,-0.1c0,0,0.1,0,0.1,-0.1c0.1,-0.1,0.2,-0.1,0.3,-0.2c0,0,0.1,-0.1,0.1,-0.1c0,-0.1,0.1,-0.1,0.1,-0.1c0,0,0.1,0,0.1,0l0.1,0l0.1,0l0,0.1l0.1,0c0.1,0,0.1,0,0.1,0c0,0,0,0.1,0.1,0.1c0.1,0,0.1,0,0.1,0l0,0.1l0,-0.1c0,0.1,0,0.1,0,0.1c0.1,0,0.1,0,0.1,0l0.1,0.1c0,-0.1,0,-0.1,0,-0.1c0,0,0,0.1,0,0.1c0.1,0,0.1,0,0.1,0c0,0,0.1,0,0.1,0l0,0.1c0,0,0.1,0,0.1,0l0.1,0c0,0,0.1,0.1,0.1,0.1c0.1,0,0.1,0,0.1,0l0.1,0l0,0.1c0,-0.1,0,-0.1,0,-0.1c0,0.1,0,0.1,0,0.1c0,0,0.1,0,0.1,0l0.1,0l0.1,0c0,0,0,0.1,0,0.1c0.1,0,0.1,0,0.1,0l0.1,0c0.1,0,0.1,0,0.1,0c0,0,0.1,0,0.1,0.1c0,0,0.1,0,0.1,0l0.1,0c0,0,0.1,0,0.1,0c0.1,0,0.1,0,0.1,0l0.1,0.1c0.1,0,0.1,0,0.1,0c0,0,0,-0.1,0,-0.1l0,0.1l0,-0.1c0.1,0,0.1,0,0.1,0.1c0,-0.1,0,-0.1,0,-0.1l0,0.1c0,-0.1,0,-0.1,0,-0.1c0,0,0.1,0,0.1,0.1c0,0,0,-0.1,0,-0.1c0,0.1,0,0.1,0,0.1c0,0,0.1,0,0.1,0c0,0,0.1,0,0.1,0c0,0,0.1,0,0.1,0c0.1,0,0.1,0,0.1,0l0.1,0l0.1,0l0.1,0l0,-0.1c0,0.1,0,0.1,0,0.1l0,-0.1c0.1,0,0.1,0,0.1,0c0.1,0,0.1,0,0.1,0c0,0,0.1,0,0.1,0c0.1,0,0.1,0,0.1,0l0.1,0c0,0,0.1,0,0.1,0c0,0,0.1,0,0.1,0c0,0,0.1,0,0.1,-0.1c0,0,0,0.1,0,0.1c0,0,0,-0.1,0,-0.1c0,0,0.1,0.1,0.1,0.1c0,0,0,-0.1,0,-0.1c0,0,0,0.1,0,0.1c0,0,0,-0.1,0,-0.1c0,0,0.1,0,0.1,0l0.1,0l0.1,0l0.1,0c0,0,0.1,0,0.1,0l0,-0.1c0,0.1,0,0.1,0,0.1l0.1,-0.1l0,0.1c0,-0.1,0,-0.1,0,-0.1c0,0,0.1,0,0.1,0c0,0,0.1,0,0.1,0c0,0,0.1,0,0.1,0l0,-0.1c0,0,0,0.1,0,0.1c0,0,0,-0.1,0,-0.1l0,0.1l0.1,-0.1c0.1,0,0.1,0,0.1,0l0.1,0c0,0,0.1,0,0.1,0l0.1,0c0,0,0.1,-0.1,0.1,-0.1l0.1,0c0,0,0.1,0,0.1,0c0.1,0,0.1,0,0.1,0c0.1,0,0.1,0,0.1,0c0.1,0,0.1,0,0.1,0c0,0,0.1,0,0.1,0l0.1,0l0.1,0c0.1,0,0.1,0,0.1,0c0,0,0.1,0,0.1,0c0,0,0.1,0,0.1,0l0.1,0c0,0,0,0.1,0,0.1l0.1,0c0,0,0.1,0,0.1,0c0,0,0.1,0,0.1,0l0,0.1l0.1,0c0.1,0,0.1,0,0.1,0c0.1,0,0.1,0.1,0.1,0.1c0,0,0.1,0,0.1,0l0.1,0c0,0,0,0.1,0,0.1c0.1,0,0.1,0,0.1,0l0,0.1c0,0,0.1,0,0.1,0l0,0.1l0.1,0c0,0,0.1,0,0.1,0.1l0.1,0c0,0,0,0.1,0,0.1c0.1,0.2,0.2,0.3,0.2,0.4l0.1,0c-0.1,0,-0.1,0,-0.1,0c0,0,0.1,0,0.1,0l-0.1,0c0.1,0,0.1,0,0.1,0l0,0.1c0,0.1,0,0.1,0,0.1c0,0,0,0.1,0,0.1c0,0.1,0,0.1,0,0.1l0,0.1l0,0.1c0,0,-0.1,0,-0.1,0l0,0.1l-0.1,0c0,0,0.1,0,0.1,0c-0.1,0.1,-0.1,0.1,-0.1,0.1l0,0.1l-0.1,0c0.1,0,0.1,0,0.1,0c-0.1,0,-0.1,0,-0.1,0c0,0.1,-0.1,0.1,-0.1,0.2c-0.1,0,-0.1,0,-0.2,0.1c0,0,-0.1,0.1,-0.1,0.1c-0.2,0.1,-0.3,0.2,-0.4,0.3c-0.1,0,-0.1,0,-0.2,0l0,0.1c0,0,-0.1,0,-0.1,0l-0.1,0c0,0,-0.1,0.1,-0.1,0.1c-0.1,0,-0.1,0,-0.1,0l-0.1,0c0,0,0,0.1,-0.1,0.1c-0.1,0,-0.1,0,-0.1,0l0,0.1l0,-0.1c-0.1,0.1,-0.1,0.1,-0.1,0.1l-0.1,0l-0.1,0c0,0,0,0.1,0,0.1c0,0,-0.1,0,-0.1,0c-0.1,0,-0.1,0,-0.1,0l-0.1,0l-0.1,0.1l0,-0.1c0,0.1,0,0.1,0,0.1c-0.1,0,-0.1,0,-0.1,0c-0.1,0,-0.1,0,-0.1,0.1c0,0,0,-0.1,0,-0.1c0,0.1,0,0.1,0,0.1c-0.1,0,-0.1,0,-0.1,0c0,0,-0.1,0,-0.1,0c-0.1,0,-0.1,0,-0.1,0.1c0,0,-0.1,0,-0.1,0c0,0,-0.1,0,-0.1,0c-0.1,0,-0.1,0,-0.2,0c0,0,0,0.1,0,0.1l-0.1,0c0,0,-0.1,0,-0.1,0l-0.1,0c0,0,-0.1,0,-0.1,0l-0.1,0l-0.1,0l0,0.1c0,-0.1,0,-0.1,0,-0.1c0,0,0,0.1,0,0.1l0,-0.1c0,0.1,0,0.1,0,0.1c-0.1,0,-0.1,0,-0.1,0c-0.1,0,-0.1,0,-0.1,0l-0.1,0c-0.1,0,-0.1,0,-0.1,0l-0.1,0l-0.1,0l-0.1,0l-0.1,0l-0.1,0.1c0,-0.1,0,-0.1,0,-0.1l0,0.1l0,-0.1c0,0,0,0.1,0,0.1l0,-0.1c0,0.1,-0.1,0.1,-0.1,0.1l0,-0.1c0,0.1,0,0.1,0,0.1l0,-0.1c0,0.1,0,0.1,0,0.1c-0.1,0,-0.1,-0.1,-0.1,-0.1l0,0.1c-0.1,-0.1,-0.1,-0.1,-0.1,-0.1l0,0.1c0,-0.1,0,-0.1,0,-0.1c0,0,0,0.1,0,0.1c0,0,0,-0.1,0,-0.1c0,0,0,0.1,-0.1,0.1c0,0,0,-0.1,0,-0.1l0,0.1c0,-0.1,0,-0.1,0,-0.1c0,0,0,0.1,-0.1,0.1c0,0,0,-0.1,0,-0.1c0,0.1,0,0.1,0,0.1c-0.1,0,-0.1,0,-0.1,0c0,0,-0.1,0,-0.1,0l-0.1,0c0,0,-0.1,0,-0.1,0c-0.1,0,-0.1,0,-0.1,0l0,-0.1l-0.1,0l-0.1,0c-0.1,0,-0.1,0,-0.1,0l-0.1,0l-0.1,0c-0.1,0,-0.1,0,-0.1,0c0,0,-0.1,0,-0.1,0c-0.1,0,-0.1,0,-0.1,0c0,0,-0.1,0,-0.1,0c0,0,-0.1,0,-0.1,0c-0.1,0,-0.1,0,-0.1,0l0,-0.1c0,0.1,0,0.1,0,0.1c-0.1,0,-0.1,0,-0.1,0c0,0,-0.1,0,-0.1,-0.1l-0.1,0l-0.1,0l-0.1,0c-0.1,0,-0.1,0,-0.1,0c0,0,-0.1,0,-0.1,0l-0.1,0l-0.1,0l-0.1,0L1403,59.3c0,0,0,0.1,0,0.1c0,-0.1,0,-0.1,0,-0.1c0,0,-0.1,0,-0.1,0l-0.1,0l-0.1,0l-0.1,0l-0.1,0l-0.1,0c-0.1,0,-0.1,0,-0.1,0l-0.1,0l-0.1,0l-0.1,0l-0.1,0c0,0,-0.1,0,-0.1,0c0,0,-0.1,0,-0.1,0c-0.1,0,-0.1,0,-0.1,0c-0.1,0,-0.1,0,-0.1,0c0,0,-0.1,0,-0.1,0c0,0,-0.1,0,-0.1,0c-0.1,0,-0.1,0,-0.1,0c0,0,-0.1,0,-0.1,0l-0.1,0.1c0,-0.1,0,-0.1,0,-0.1c0,0.1,0,0.1,0,0.1c-0.1,0,-0.1,0,-0.1,0l-0.1,0c0,0,-0.1,0.1,-0.1,0.1c0,0,-0.1,0,-0.1,0c0,0.1,-0.1,0.1,-0.1,0.1l0,0.1l-0.1,0l0,0.1l0,0.1l0,0.1l0,0.1c0,0.1,0,0.1,0,0.1l0,0.1l0,0.1c0,0.1,0,0.1,0,0.1l0,0.1c0,0.1,0,0.1,0,0.1c-0.1,0.1,-0.2,0.1,-0.2,0.1c-0.1,0,-0.1,0,-0.1,0l-0.1,0c0,0,0,0.1,-0.1,0.1l-0.1,0c-0.1,0,-0.1,0,-0.1,0c-0.1,0,-0.1,0,-0.1,0l-0.1,0c0,0,-0.1,0.1,-0.1,0.1c0,0,-0.1,0,-0.1,0l-0.1,0c0,0,-0.1,0,-0.1,0l-0.1,0c0,0,-0.1,0,-0.1,0c0,0.1,0,0.1,-0.1,0.1l-0.1,0l-0.1,0c-0.1,0,-0.1,0,-0.1,0c0,0,-0.1,0,-0.1,0c-0.1,0,-0.1,0.1,-0.1,0.1l0,-0.1c0,0.1,0,0.1,0,0.1l-0.1,0c-0.1,0,-0.1,0,-0.1,0l-0.1,0c0,0,0,0.1,0,0.1c0,0,0,-0.1,0,-0.1c0,0.1,0,0.1,0,0.1c-0.1,0,-0.1,0,-0.1,0c-0.1,0,-0.1,0,-0.1,0c0,0,-0.1,0,-0.1,0l-0.1,0l-0.1,0c0,0.1,0,0.1,0,0.1l-0.1,0c-0.1,0,-0.1,0,-0.1,0c0,0,-0.1,0,-0.1,0c-0.1,0,-0.1,0,-0.1,0c-0.1,0,-0.1,0,-0.1,0c0,0,0,0.1,0,0.1c0,0,-0.1,0,-0.1,0l-0.1,0l-0.1,0l-0.1,0c-0.1,0,-0.1,0,-0.1,0l0,0.1c0,0,0,-0.1,0,-0.1c0,0.1,0,0.1,0,0.1c0,0,-0.1,0,-0.1,0c0,0,-0.1,0,-0.1,0c0,0,-0.1,0,-0.1,0c-0.1,0,-0.1,-0.1,-0.1,-0.1c0,-0.1,0,-0.1,0,-0.1l0,-0.1l0,-0.1l0,-0.1l0,-0.1l-0.1,0l0.1,-0.1c0,0,-0.1,0,-0.1,0l0.1,0c-0.1,0,-0.1,0,-0.1,0l0,-0.1l0,-0.1l0,-0.1l-0.1,-0.1c0,-0.1,0,-0.1,0,-0.1l0,-0.1c-0.1,0,-0.1,-0.1,-0.1,-0.1c0,0,0,-0.1,-0.1,-0.1c0,0,0,-0.1,0,-0.1c0,-0.1,0,-0.1,-0.1,-0.1l0.1,0c-0.1,0,-0.1,0,-0.1,0l0,-0.1c0,0,0,-0.1,-0.1,-0.1c0.1,0,0.1,0,0.1,0c-0.1,0,-0.1,-0.1,-0.1,-0.1c-0.1,-0.1,-0.1,-0.1,-0.1,-0.1c0,-0.1,0,-0.1,-0.1,-0.1l0,-0.1c0,0,0,-0.1,0,-0.1c0,-0.1,0,-0.1,0,-0.2c0,0,-0.1,0,-0.1,0c0,-0.1,0,-0.1,0,-0.1c0,-0.1,0,-0.1,0,-0.1l0,-0.1l0,-0.1c0,-0.1,0,-0.1,-0.1,-0.1l0,-0.1c0,0,0,-0.1,0,-0.1c0,0,0,-0.1,0,-0.1c0,0,0,-0.1,0,-0.1l0,-0.1c0,-0.1,0,-0.1,0,-0.1c0,-0.1,0,-0.1,0,-0.1c0,0,0,-0.1,0,-0.1c0.1,0,0.1,0,0.1,0c0,-0.1,0,-0.1,0,-0.1l0,-0.1c0,0,0,-0.1,0,-0.1c0,-0.1,0,-0.1,0.1,-0.1l0,-0.1c0,0,0,-0.1,0,-0.1l0,-0.1l0.1,0c-0.1,0,-0.1,0,-0.1,0c0,0,0.1,0,0.1,0c0,-0.1,0,-0.1,0,-0.1l0,-0.1c0,0,0.1,0,0.1,0l0,-0.1c0,0,0.1,-0.1,0.1,-0.1c0,0,0.1,0,0.1,0c0,0,0.1,0,0.1,0c0,0.1,0,0.1,0,0.1l0.1,0l0.1,0l0.1,0l0,0.1l0,-0.1c0,0.1,0,0.1,0,0.1c0.1,0,0.1,0,0.1,0l0.1,0l0.1,0c0,0,0,0.1,0,0.1l0.1,0c0,0,0.1,0,0.1,0l0.1,0c0,0,0.1,0,0.1,0.1c0,0,0,-0.1,0,-0.1c0,0.1,0,0.1,0,0.1l0.1,0l0.1,0c0.1,0,0.1,0,0.1,0l0.1,0c0,0,0,0.1,0.1,0Z" class="g3_1" />
<path d="M1313.6,48.8c0,22.1,-17.9,40.1,-40,40.1c-22.1,0,-40,-18,-40,-40.1c0,-22.1,17.9,-40,40,-40c22.1,0,40,17.9,40,40Z" class="g2_1" />
<path d="M1264.6,59.8c-2.7,-0.4,-4.9,-2.9,-4.9,-5.8l0,-21.2c0,-3.1,2.6,-5.7,5.8,-5.7l16.1,0c3.2,0,5.8,2.6,5.8,5.7l0,21.2c0,2.9,-2.1,5.3,-4.9,5.7l7.3,10.8l-4.1,0l-5,-7.3l-14.3,0l-5,7.3l-4.1,0Zm1.2,-2.9c1.4,0,2.6,-1.2,2.6,-2.6c0,-1.5,-1.2,-2.7,-2.6,-2.7c-1.5,0,-2.7,1.2,-2.7,2.7c0,1.4,1.2,2.6,2.7,2.6M1284,54.3c0,-1.5,-1.2,-2.7,-2.6,-2.7c-1.5,0,-2.7,1.2,-2.7,2.7c0,1.4,1.2,2.6,2.7,2.6c1.4,0,2.6,-1.2,2.6,-2.6m-2.8,-11.5c1.5,0,2.7,-1.2,2.7,-2.7l0,-4.4c0,-1.5,-1.2,-2.8,-2.7,-2.8l-15.3,0c-1.5,0,-2.7,1.3,-2.7,2.8l0,4.4c0,1.5,1.2,2.7,2.7,2.7Zm-4.3,-11.1c0.4,0,0.7,-0.3,0.7,-0.6l0,-2.4c0,-0.3,-0.3,-0.6,-0.7,-0.6l-6.7,0c-0.4,0,-0.7,0.3,-0.7,0.6l0,2.4c0,0.3,0.3,0.6,0.7,0.6Z" class="g3_1" />
<g clip-path="url(#c1_1)">
<path d="M1543.2,49.3c0,22,-17.9,39.8,-39.9,39.8c-22,0,-39.8,-17.8,-39.8,-39.8c0,-22,17.8,-39.8,39.8,-39.8c22,0,39.9,17.8,39.9,39.8Z" class="g2_1" />
</g>
<path d="M1490.8,56.9c0,-1.2,1,-2.2,2.3,-2.2c1.2,0,2.2,1,2.2,2.2c0,1.2,-1,2.2,-2.2,2.2c-1.3,0,-2.3,-1,-2.3,-2.2m22.9,0c0,-1.2,1,-2.2,2.2,-2.2c1.2,0,2.2,1,2.2,2.2c0,1.2,-1,2.2,-2.2,2.2c-1.2,0,-2.2,-1,-2.2,-2.2M1497.6,34.3c-0.5,0,-1,-0.4,-1,-1c0,-0.5,0.5,-1,1,-1l13.8,0c0.6,0,1,0.5,1,1c0,0.6,-0.4,1,-1,1Zm17.9,2.4c1,0,1.6,0.6,1.7,1.4c0.5,3.7,0.7,5.3,0.9,9c0.1,1,-0.6,1.6,-1.4,1.6l-24.3,0c-0.9,0,-1.6,-0.7,-1.5,-1.6c0.2,-3.6,0.4,-5.5,0.9,-9.1c0.1,-0.8,0.7,-1.3,1.7,-1.3m20.2,27.6l0,2.7c0,1.2,1,2.2,2.2,2.2c1.2,0,2.2,-1,2.2,-2.2c0,-0.7,0,-2.7,0,-2.7l2.9,0l0,-15.7c0,0,-0.8,-8,-1.1,-11.1c-0.4,-3.6,-1.2,-4.6,-3.7,-5.8c-3.5,-1.7,-7.5,-2.4,-11.7,-2.4c-4.2,0,-8.2,0.7,-11.8,2.4c-2.4,1.2,-3.3,2.2,-3.6,5.8c-0.4,3.1,-1.2,11.1,-1.2,11.1l0,15.7l3,0c0,0,-0.1,2,-0.1,2.7c0,1.2,1,2.2,2.2,2.2c1.3,0,2.3,-1,2.3,-2.2l0,-2.7Z" class="g3_1" />
<path d="M1659.2,50.2c0,22.1,-17.9,40,-40,40c-22.1,0,-40,-17.9,-40,-40c0,-22.1,17.9,-40,40,-40c22.1,0,40,17.9,40,40Z" class="g2_1" />
<path fill-rule="evenodd" d="M1634.1,37.1l-6.4,0c-0.1,-0.3,-0.3,-0.5,-0.5,-0.7l-4.8,-6.1c-0.1,-0.2,-0.3,-0.3,-0.4,-0.5c-0.2,-0.4,-0.5,-0.8,-0.9,-1.1c-1.6,-1.6,-4.3,-1.5,-6,0.2l-8.2,8.5c-0.4,0.3,-0.6,0.7,-0.8,1.2c-0.2,0.1,-0.4,0.3,-0.5,0.6c-1,1.6,-0.3,3.8,1.6,5l9.3,5.7c0.2,0.1,0.5,0.3,0.7,0.4l0,8.8c0,2.2,1.2,4,2.7,4c1.5,0,2.7,-1.8,2.7,-4l0,-10.9c0,-2.1,-1,-3.8,-2.4,-4c0,-0.1,-0.1,-0.1,-0.1,-0.1L1615,41l5.6,-5.8l3,3.8c0.1,0.9,1.3,1.7,2.8,1.7l7.7,0c1.6,0,2.8,-0.8,2.9,-1.7c0,-1,-1.3,-1.9,-2.9,-1.9Z" class="g3_1" />
<path fill-rule="evenodd" d="M1630.3,25c0,2.6,-2.1,4.7,-4.6,4.7c-2.6,0,-4.7,-2.1,-4.7,-4.7c0,-2.6,2.1,-4.7,4.7,-4.7c2.5,0,4.6,2.1,4.6,4.7Z" class="g3_1" />
<path fill-rule="evenodd" d="M1630,24.1c0,0,2.8,-1.4,-1.3,-4.8c-5.6,-1.9,-7.1,0,-8.6,0.2c0,0,-3.2,0.9,-0.9,2.4l1,1.1Z" class="g3_1" />
<path d="M1637.6,53.8c5.2,0,9.4,4.3,9.4,9.4c0,5.2,-4.2,9.5,-9.4,9.5c-5.2,0,-9.4,-4.3,-9.4,-9.5c0,-5.1,4.2,-9.4,9.4,-9.4m0,-2.9c-6.8,0,-12.3,5.6,-12.3,12.3c0,6.8,5.5,12.4,12.3,12.4c6.8,0,12.3,-5.6,12.3,-12.4c0,-6.7,-5.5,-12.3,-12.3,-12.3Z" class="g3_1" />
<path d="M1601,54c5.2,0,9.4,4.2,9.4,9.4c0,5.2,-4.2,9.4,-9.4,9.4c-5.2,0,-9.4,-4.2,-9.4,-9.4c0,-5.2,4.2,-9.4,9.4,-9.4m0,-2.9c-6.8,0,-12.3,5.5,-12.3,12.3c0,6.8,5.5,12.3,12.3,12.3c6.8,0,12.3,-5.5,12.3,-12.3c0,-6.8,-5.5,-12.3,-12.3,-12.3Z" class="g3_1" />
<path fill-rule="evenodd" d="M1618.7,63.8c0,2,-1.6,3.7,-3.7,3.7c-2,0,-3.6,-1.7,-3.6,-3.7c0,-2,1.6,-3.7,3.6,-3.7c2.1,0,3.7,1.7,3.7,3.7Z" class="g3_1" />
<path fill-rule="evenodd" d="M1603,62.9c0,1.2,-0.9,2.1,-2,2.1c-1.2,0,-2.1,-0.9,-2.1,-2.1c0,-1.1,0.9,-2,2.1,-2c1.1,0,2,0.9,2,2Z" class="g3_1" />
<path fill-rule="evenodd" d="M1639.2,62.9c0,1.2,-0.9,2.1,-2.1,2.1c-1.1,0,-2,-0.9,-2,-2.1c0,-1.1,0.9,-2,2,-2c1.2,0,2.1,0.9,2.1,2Z" class="g3_1" />
<path d="M1631,50.3l-14.2,12.3M1610,45.4l4.5,18.5l-13.2,-1M1601,62.7l10.2,-14.3l19.3,-0.2l6.3,14.3" class="g5_1" />
<path d="M1633.7,40l0.4,1.7l-4.8,1.8l1.3,4.3" class="g6_1" />
<path d="M1643.6,124.4c-0.3,1.9,-1.7,5.4,-3.8,5.4c-1.9,0,-2,-2.3,-2,-4.1c0,-4.6,2.8,-12.6,6.6,-12.6c0.5,0,0.9,0.1,1.3,0.3Zm-16.5,24c1.1,0.7,4.4,1.3,6.8,1.3c4.7,0,8.6,-1.2,11.3,-3.8c2.9,-2.7,4.5,-6.9,5.5,-11.9l4.8,-25.9c-2.4,-1.2,-5.6,-2,-9.6,-2c-11.4,0,-17.5,12.3,-17.2,22.2c0.1,4.4,2.2,8.7,6.6,8.7c2.6,0,4.9,-1.2,6.8,-4.1l0.2,0l-0.7,3.2c-0.7,3.7,-3,6.6,-7.3,6.6c-1.6,0,-3.7,-0.6,-4.9,-1.3Zm-9.3,-11.1l2.5,-13.4c0.9,-5.4,4.1,-8.6,7.2,-8.6c0.5,0,1.2,0.1,1.5,0.1l1.8,-9.1c-0.5,-0.1,-0.9,-0.2,-1.5,-0.2c-2.3,0,-5.1,1.4,-7.5,5.4l-0.2,0c0.1,-1.7,0.3,-3.3,0.4,-4.9l-7.9,0c-0.5,3.1,-1,6.5,-1.6,9.8l-4,20.9Zm-23.9,-6.5c-2,0,-2,-2.3,-2,-4c-0.1,-5,2.3,-13.8,5,-13.8c1.6,0,2.1,1.4,2.1,2.9c0,5.7,-2,14.9,-5,14.9Zm-0.8,7c9.2,0,14.9,-10.2,14.9,-20.6c0,-4.4,-1.2,-11.1,-9.6,-11.1c-9.3,0,-15.6,9.8,-15.6,21c0,4.1,1.7,10.7,10.3,10.7Zm-19.9,0c3.1,0,5.9,-2.5,5.9,-6.7c0,-3.4,-1.8,-5.7,-5.3,-5.7c-3.1,0,-5.7,3.3,-5.7,6.6c0,3.3,1.8,5.8,5.1,5.8ZM1546,136.1c1.1,0.8,3.6,1.5,6.6,1.5c7.6,0,12.5,-3.9,12.5,-10.7c0,-2.2,-0.8,-5.2,-4.7,-8.1c-1.4,-1,-2.1,-1.9,-2.1,-3c0,-1.8,1.5,-2.8,3.7,-2.8c1.3,0,2.8,0.4,3.7,0.9l1.8,-6.6c-1.2,-0.7,-3.2,-1.2,-6.1,-1.2c-7.5,0,-12.1,4.9,-12.1,10.7c0,2.5,0.9,5.2,3.8,7.4c2.3,1.8,2.9,2.7,2.9,4c0,1.5,-1,2.6,-2.9,2.7c-2.2,0.1,-3.7,-0.5,-5,-1.2Zm-10.7,-35l-1.1,5.5l-3.5,0l-1.2,6.4l3.5,0l-2.5,12.7c-0.2,1.2,-0.5,3,-0.5,4.5c0,4.5,2.5,7.4,7.8,7.4c1.7,0,3.8,0,5.3,-0.5l1.2,-6.8c-0.9,0.1,-1.7,0.1,-2.2,0.1c-1.4,0,-2.5,-0.6,-2.5,-2.7c0,-0.5,0,-1.2,0.2,-2l2.4,-12.7l5.8,0l1.2,-6.4l-5.8,0l1.6,-8.3ZM1520,116c0,2.4,-2.7,4.1,-6.5,3.8c0.5,-3.5,2.3,-6.3,4.5,-6.3c1.4,0,2,0.9,2,2.4Zm4.2,13c-2.1,1,-3.9,1.5,-6.6,1.5c-2,0,-3.3,-0.7,-4,-1.5c-0.8,-0.7,-1,-1.5,-1,-2.4c8.6,0.4,15.4,-2.7,15.4,-11.5c0,-4.5,-2.8,-9,-8.9,-9c-10.2,0,-15.2,10.6,-15.2,19.8c0,6.7,3.1,11.7,11.2,11.7c3.8,0,6.6,-0.5,9.5,-1.6Zm-29.3,-13c0,2.4,-2.8,4.1,-6.6,3.8c0.5,-3.5,2.3,-6.3,4.6,-6.3c1.3,0,2,0.9,2,2.4Zm4.1,13c-2,1,-3.8,1.5,-6.5,1.5c-2,0,-3.3,-0.7,-4.1,-1.5c-0.7,-0.7,-0.9,-1.5,-0.9,-2.4c8.6,0.4,15.4,-2.7,15.4,-11.5c-0.1,-4.5,-2.8,-9,-8.9,-9c-10.2,0,-15.3,10.6,-15.3,19.8c0,6.7,3.2,11.7,11.2,11.7c3.9,0,6.6,-0.5,9.6,-1.6Zm-31.6,8.3l2.5,-13.4c1,-5.4,4.1,-8.6,7.2,-8.6c0.5,0,1.3,0.1,1.6,0.1l1.7,-9.1c-0.4,-0.1,-0.9,-0.2,-1.4,-0.2c-2.4,0,-5.2,1.4,-7.6,5.4l-0.2,0c0.2,-1.7,0.3,-3.3,0.4,-4.9l-7.8,0c-0.5,3.1,-1,6.5,-1.6,9.8l-4,20.9ZM1447,101.1l-1.1,5.5l-3.5,0l-1.2,6.4l3.5,0l-2.4,12.7c-0.3,1.2,-0.5,3,-0.5,4.5c0,4.5,2.4,7.4,7.7,7.4c1.7,0,3.8,0,5.3,-0.5l1.2,-6.8c-0.8,0.1,-1.7,0.1,-2.2,0.1c-1.4,0,-2.5,-0.6,-2.5,-2.7c0,-0.5,0,-1.2,0.2,-2l2.4,-12.7l5.8,0l1.2,-6.4l-5.7,0l1.5,-8.3Zm-31.1,35c1,0.6,3.7,1.5,8.4,1.5c8,0,14.3,-5,14.3,-14.1c0,-3.1,-1.4,-6.8,-5,-10c-3.6,-3.1,-4.1,-4.3,-4.1,-5.9c0,-2.9,2.1,-4.6,5.1,-4.6c1.8,0,3.2,0.5,4.5,1.1l2.4,-7.9c-1,-0.6,-3.1,-1.3,-6.6,-1.3c-8.7,0,-14.5,5.6,-14.5,13.9c0,3.6,1.5,7,4.9,10.1c2.6,2.5,4.1,3.8,4.1,6.4c0,2.9,-2.4,4.4,-5.4,4.2c-2.2,0,-4.4,-0.6,-5.8,-1.4Zm-18.9,1.2l3,-15.9c1.1,-5.8,3.1,-7.8,4.5,-7.8c1.1,0,1.6,0.9,1.6,2.2c0,1,-0.2,1.8,-0.4,2.8l-3.5,18.7l9.2,0l3.5,-18c0.4,-2.4,0.7,-4.4,0.7,-6.2c0,-3.9,-1.6,-7,-6.2,-7c-3.4,0,-6.3,1.6,-8.3,4.1l-0.1,0l0.2,-3.6l-7.9,0c-0.4,3.1,-0.9,6.5,-1.6,9.8l-4,20.9ZM1379.7,116c0,2.4,-2.7,4.1,-6.5,3.8c0.5,-3.5,2.3,-6.3,4.5,-6.3c1.4,0,2,0.9,2,2.4Zm4.2,13c-2.1,1,-3.9,1.5,-6.6,1.5c-1.9,0,-3.3,-0.7,-4,-1.5c-0.8,-0.7,-0.9,-1.5,-0.9,-2.4c8.6,0.4,15.4,-2.7,15.4,-11.5c-0.1,-4.5,-2.9,-9,-9,-9c-10.2,0,-15.2,10.6,-15.2,19.8c0,6.7,3.2,11.7,11.2,11.7c3.9,0,6.6,-0.5,9.5,-1.6Zm-29.3,-13c0,2.4,-2.8,4.1,-6.6,3.8c0.5,-3.5,2.3,-6.3,4.6,-6.3c1.4,0,2,0.9,2,2.4Zm4.2,13c-2.1,1,-3.9,1.5,-6.6,1.5c-2,0,-3.3,-0.7,-4,-1.5c-0.8,-0.7,-1,-1.5,-1,-2.4c8.6,0.4,15.4,-2.7,15.4,-11.5c0,-4.5,-2.8,-9,-8.9,-9c-10.2,0,-15.3,10.6,-15.3,19.8c0,6.7,3.2,11.7,11.3,11.7c3.8,0,6.6,-0.5,9.5,-1.6Zm-31.7,8.3l2.5,-13.4c1,-5.4,4.1,-8.6,7.2,-8.6c0.5,0,1.3,0.1,1.6,0.1l1.7,-9.1c-0.4,-0.1,-0.8,-0.2,-1.4,-0.2c-2.4,0,-5.2,1.4,-7.5,5.4l-0.3,0c0.2,-1.7,0.3,-3.3,0.4,-4.9l-7.8,0c-0.5,3.1,-1,6.5,-1.6,9.8l-4,20.9Zm-9.8,-24l-11.5,0l-1.4,7.4l3,0l-1.6,8.9c-0.7,0.1,-1.2,0.1,-1.9,0.1c-2.5,0,-4.1,-2.3,-4.1,-6.8c0,-8.1,2.6,-14.1,5.7,-17.2c1.6,-1.6,3.6,-2.4,6.4,-2.4c1.7,0,3.7,0.4,4.7,0.9l2.9,-8.1c-1.2,-0.5,-3.4,-1.2,-7.3,-1.2c-5.6,0,-10.8,2.2,-14.3,6c-4.8,5.2,-7.8,12.9,-7.8,22c0,3.7,1.1,7.8,3.3,10.4c2.2,2.7,5.3,4.3,10.6,4.3c3.6,0,6.5,-0.7,9,-1.6Zm-44.4,17.5c-2,0,-2,-2.3,-2,-4c-0.1,-5,2.3,-13.8,5,-13.8c1.6,0,2.1,1.4,2.1,2.9c0,5.7,-2,14.9,-5,14.9Zm-0.8,7c9.2,0,14.9,-10.2,14.9,-20.6c0,-4.4,-1.2,-11.1,-9.6,-11.1c-9.3,0,-15.6,9.8,-15.6,21c0,4.1,1.7,10.7,10.3,10.7Zm-11.9,-24.5l-11.5,0l-1.4,7.4l3,0l-1.6,8.9c-0.7,0.1,-1.2,0.1,-1.9,0.1c-2.5,0,-4.1,-2.3,-4.1,-6.8c0,-8.1,2.6,-14.1,5.7,-17.2c1.6,-1.6,3.6,-2.4,6.4,-2.4c1.7,0,3.7,0.4,4.7,0.9l2.9,-8.1c-1.3,-0.5,-3.4,-1.2,-7.3,-1.2c-5.6,0,-10.8,2.2,-14.3,6c-4.8,5.2,-7.8,12.9,-7.8,22c0,3.7,1.1,7.8,3.3,10.4c2.2,2.7,5.3,4.3,10.6,4.3c3.6,0,6.5,-0.7,9,-1.6Z" class="g2_1" />
<path d="M1117,124.3c0,-1.4,0.5,-3.4,1.8,-3.4c1.3,0,1.6,1.8,1.6,3.4Zm7.9,3.6c0.1,-0.5,0.1,-1.3,0.1,-2.7c0,-5.5,-2.3,-8,-6,-8c-3.9,0,-7,3.3,-7,8.9c0,5.2,2.6,8.1,7.4,8.1c1.8,0,3.7,-0.3,4.9,-0.8l-0.7,-3.7c-0.8,0.3,-2,0.6,-3.3,0.6c-2,0,-3.3,-0.9,-3.3,-2.4Zm-36,6.1l5.2,0l0,-10.4c0,-0.4,0.1,-0.9,0.2,-1.1c0.3,-0.7,0.8,-1,1.3,-1c1.1,0,1.2,1.4,1.2,2.3l0,10.2l5.1,0l0,-10.4c0,-0.4,0.1,-0.9,0.2,-1c0.2,-0.8,0.7,-1.1,1.3,-1.1c1.1,0,1.2,1.3,1.2,3l0,9.5l5.2,0l0,-10.3c0,-3.9,-1.1,-6.5,-4.4,-6.5c-0.8,0,-1.6,0.2,-2.3,0.6c-0.7,0.4,-1.3,1,-1.7,1.5l-0.1,0c-0.5,-1.2,-1.7,-2.1,-3.7,-2.1c-1.6,0,-3.1,1,-4,2.1l-0.1,0l-0.2,-1.8l-4.5,0c0,1.6,0.1,3.5,0.1,5.2Zm-5.5,-18.3c1.4,0,2.6,-1.1,2.6,-2.7c0,-1.6,-1.2,-2.7,-2.6,-2.7c-1.4,0,-2.6,1.1,-2.5,2.7c-0.1,1.6,1.1,2.7,2.4,2.7Zm2.7,1.8l-5.2,0l0,16.5l5.2,0l0,-16.5Zm-15.7,-3l0,3l-1.9,0l0,3.6l1.9,0l0,7c0,2.8,0.6,4.1,1.6,5c0.9,0.8,2.1,1.1,3.4,1.1c1.3,0,2.4,-0.1,3.1,-0.3l0,-4.1c-0.5,0.1,-0.8,0.1,-1.2,0.1c-0.9,0,-1.7,-0.4,-1.7,-2.2l0,-6.6l3.3,0l0,-3.6l-3.3,0l0,-4.5Zm-13.5,14.3c0,0.3,-0.1,0.5,-0.1,0.7c-0.3,0.8,-1,1,-1.6,1c-0.6,0,-1.4,-0.5,-1.4,-2c0,-1.7,1.6,-2.3,3.1,-2.4Zm5.1,-4.3c0,-3.2,-0.6,-7.3,-6.3,-7.3c-2.6,0,-4.7,0.8,-5.7,1.3l0.9,3.5c1.1,-0.7,2.2,-1,3.6,-1c1.4,0,2.2,0.7,2.2,1.6l0,0.3c-3.7,0,-7.8,1.8,-7.8,6.2c0,3,1.9,5.1,4.6,5.1c1.4,0,2.8,-0.5,3.8,-1.8l0.3,1.6l4.6,0c-0.2,-1.2,-0.2,-2.5,-0.2,-3.8Zm-27.3,-10l0,3l-1.9,0l0,3.6l1.9,0l0,7c0,2.8,0.6,4.1,1.6,5c0.8,0.8,2,1.1,3.4,1.1c1.3,0,2.4,-0.1,3,-0.3l0,-4.1c-0.4,0.1,-0.7,0.1,-1.2,0.1c-0.8,0,-1.6,-0.4,-1.6,-2.2l0,-6.6l3.3,0l0,-3.6l-3.3,0l0,-4.5Zm-8.5,14.3c0,0.3,-0.1,0.5,-0.1,0.7c-0.3,0.8,-1,1,-1.6,1c-0.6,0,-1.4,-0.5,-1.4,-2c0,-1.7,1.6,-2.3,3.1,-2.4Zm5.1,-4.3c0,-3.2,-0.6,-7.3,-6.3,-7.3c-2.6,0,-4.7,0.8,-5.7,1.3l0.9,3.5c1.1,-0.7,2.2,-1,3.6,-1c1.4,0,2.2,0.7,2.2,1.6l0,0.3c-3.7,0,-7.8,1.8,-7.8,6.2c0,3,2,5.1,4.6,5.1c1.4,0,2.8,-0.5,3.8,-1.8l0.3,1.6l4.6,0c-0.2,-1.2,-0.2,-2.5,-0.2,-3.8ZM1004,124.3c0,-1.4,0.5,-3.4,1.8,-3.4c1.3,0,1.6,1.8,1.6,3.4Zm7.9,3.6c0.1,-0.5,0.1,-1.3,0.1,-2.7c0,-5.5,-2.3,-8,-6,-8c-3.9,0,-7,3.3,-7,8.9c0,5.2,2.6,8.1,7.4,8.1c1.8,0,3.7,-0.3,4.9,-0.8l-0.7,-3.7c-0.8,0.3,-2,0.6,-3.3,0.6c-2,0,-3.2,-0.9,-3.3,-2.4ZM989.4,114.5l0,3l-1.9,0l0,3.6l1.9,0l0,7c0,2.8,0.6,4.1,1.6,5c0.9,0.8,2.1,1.1,3.5,1.1c1.2,0,2.3,-0.1,3,-0.3l0,-4.1c-0.5,0.1,-0.8,0.1,-1.2,0.1c-0.9,0,-1.7,-0.4,-1.7,-2.2l0,-6.6l3.3,0l0,-3.6l-3.3,0l0,-4.5Zm-3.7,3l-5.2,0l0,10.4c0,0.5,-0.1,1.1,-0.3,1.3c-0.2,0.5,-0.6,0.7,-1,0.7c-1,0,-1.5,-1.2,-1.5,-3.1l0,-9.3l-5.2,0l0,9.8c0,4.6,1.4,6.9,4.6,6.9c1.7,0,3.1,-0.7,3.9,-2l0.1,0l0.3,1.8l4.5,0c-0.1,-1.7,-0.2,-3.5,-0.2,-5.3ZM949,134l5.1,0l0,-10.4c0,-0.4,0.1,-0.9,0.2,-1.1c0.3,-0.7,0.8,-1,1.3,-1c1.2,0,1.2,1.4,1.2,2.3l0,10.2l5.2,0l0,-10.4c0,-0.4,0.1,-0.9,0.1,-1c0.3,-0.8,0.7,-1.1,1.4,-1.1c1,0,1.2,1.3,1.2,3l0,9.5l5.2,0l0,-10.3c0,-3.9,-1.2,-6.5,-4.4,-6.5c-0.9,0,-1.7,0.2,-2.4,0.6c-0.6,0.4,-1.3,1,-1.7,1.5c-0.6,-1.2,-1.7,-2.1,-3.7,-2.1c-1.7,0,-3.1,1,-4,2.1l-0.1,0l-0.3,-1.8l-4.5,0c0.1,1.6,0.2,3.5,0.2,5.2Zm-23.8,0l5.2,0l0,-10.4c0,-0.4,0.1,-0.9,0.2,-1.1c0.3,-0.7,0.8,-1,1.3,-1c1.2,0,1.2,1.4,1.2,2.3l0,10.2l5.2,0l0,-10.4c0,-0.4,0,-0.9,0.1,-1c0.3,-0.8,0.7,-1.1,1.4,-1.1c1,0,1.2,1.3,1.2,3l0,9.5l5.1,0l0,-10.3c0,-3.9,-1.1,-6.5,-4.4,-6.5c-0.8,0,-1.6,0.2,-2.3,0.6c-0.6,0.4,-1.3,1,-1.7,1.5l-0.1,0c-0.5,-1.2,-1.6,-2.1,-3.6,-2.1c-1.7,0,-3.2,1,-4.1,2.1l-0.3,-1.8l-4.5,0c0.1,1.6,0.1,3.5,0.1,5.2Zm-8.8,-3.6c-1.2,0,-1.6,-1.9,-1.6,-4.7c0,-2.2,0.3,-4.6,1.6,-4.6c1.1,0,1.5,2.4,1.5,4.6c0,2.3,-0.4,4.7,-1.4,4.7Zm0,3.8c2.4,0,6.6,-1.5,6.6,-8.6c0,-4.9,-2.3,-8.4,-6.6,-8.4c-3.5,0,-6.8,2.7,-6.8,8.6c0,5.2,2.4,8.4,6.8,8.4Zm-8.1,-4.5c-0.4,0.2,-0.9,0.3,-1.5,0.3c-2,0,-3.1,-1.7,-3.1,-4.3c0,-2.7,1.2,-4.3,3.2,-4.3c0.6,0,1.1,0.2,1.5,0.3l0.6,-4c-0.4,-0.2,-1.3,-0.4,-2.4,-0.4c-4.8,0,-8.1,3.3,-8.1,8.6c0,5.4,2.9,8.3,7.3,8.3c1.3,0,2.5,-0.3,2.9,-0.4Zm-24.4,-5.4c0,-1.4,0.5,-3.4,1.8,-3.4c1.3,0,1.6,1.8,1.6,3.4Zm7.9,3.6c0.1,-0.5,0.2,-1.3,0.2,-2.7c0,-5.5,-2.4,-8,-6,-8c-3.9,0,-7.1,3.3,-7.1,8.9c0,5.2,2.7,8.1,7.4,8.1c1.8,0,3.7,-0.3,4.9,-0.8l-0.6,-3.7c-0.9,0.3,-2,0.6,-3.4,0.6c-1.9,0,-3.2,-0.9,-3.3,-2.4ZM863.4,134l5.2,0l0,-9.9c0,-0.7,0.1,-1.3,0.3,-1.6c0.3,-0.6,0.7,-1,1.3,-1c1,0,1.3,1.1,1.3,2.3l0,10.2l5.2,0l0,-10.4c0,-3.6,-1,-6.4,-4.5,-6.4c-1.7,0,-3.2,0.8,-4.1,2.1l-0.1,0l-0.3,-1.8l-4.4,0c0,1.6,0.1,3.5,0.1,5.2Zm-8.8,-3.6c-1.2,0,-1.7,-1.9,-1.7,-4.7c0,-2.2,0.3,-4.6,1.7,-4.6c1.1,0,1.4,2.4,1.4,4.6c0,2.3,-0.3,4.7,-1.4,4.7Zm0,3.8c2.4,0,6.6,-1.5,6.6,-8.6c0,-4.9,-2.3,-8.4,-6.6,-8.4c-3.5,0,-6.8,2.7,-6.8,8.6c0,5.2,2.4,8.4,6.7,8.4Zm-17.3,3.6c1.7,-2.8,3.1,-6.2,4.2,-9.4l-5.1,0.3c-0.4,2.9,-1.3,6.3,-2.4,9.5ZM825,114.5l0,3l-1.9,0l0,3.6l1.9,0l0,7c0,2.8,0.5,4.1,1.6,5c0.8,0.8,2,1.1,3.4,1.1c1.3,0,2.4,-0.1,3,-0.3l0,-4.1c-0.4,0.1,-0.7,0.1,-1.2,0.1c-0.8,0,-1.6,-0.4,-1.6,-2.2l0,-6.6l3.2,0l0,-3.6l-3.2,0l0,-4.5ZM808.2,134l5.2,0l0,-9.9c0,-0.7,0.1,-1.3,0.3,-1.6c0.3,-0.6,0.7,-1,1.3,-1c1,0,1.3,1.1,1.3,2.3l0,10.2l5.2,0l0,-10.4c0,-3.6,-1,-6.4,-4.5,-6.4c-1.7,0,-3.2,0.8,-4.1,2.1l-0.1,0l-0.3,-1.8l-4.4,0c0,1.6,0.1,3.5,0.1,5.2Zm-10.3,-9.7c0,-1.4,0.4,-3.4,1.7,-3.4c1.4,0,1.7,1.8,1.7,3.4Zm7.9,3.6c0.1,-0.5,0.1,-1.3,0.1,-2.7c0,-5.5,-2.4,-8,-6,-8c-3.9,0,-7,3.3,-7,8.9c0,5.2,2.6,8.1,7.3,8.1c1.9,0,3.7,-0.3,5,-0.8l-0.7,-3.7c-0.9,0.3,-2,0.6,-3.3,0.6c-2,0,-3.3,-0.9,-3.3,-2.4Zm-36,6.1l5.1,0l0,-10.4c0,-0.4,0.1,-0.9,0.2,-1.1c0.3,-0.7,0.9,-1,1.4,-1c1.1,0,1.1,1.4,1.1,2.3l0,10.2l5.2,0l0,-10.4c0,-0.4,0.1,-0.9,0.1,-1c0.3,-0.8,0.7,-1.1,1.4,-1.1c1,0,1.2,1.3,1.2,3l0,9.5l5.2,0l0,-10.3c0,-3.9,-1.2,-6.5,-4.4,-6.5c-0.9,0,-1.7,0.2,-2.3,0.6c-0.7,0.4,-1.4,1,-1.8,1.5c-0.6,-1.2,-1.7,-2.1,-3.7,-2.1c-1.7,0,-3.1,1,-4,2.1l-0.1,0l-0.3,-1.8l-4.5,0c0.1,1.6,0.2,3.5,0.2,5.2Zm-16.2,0l5.2,0l0,-9.9c0,-0.7,0.2,-1.3,0.3,-1.6c0.3,-0.6,0.7,-1,1.3,-1c1.1,0,1.4,1.1,1.4,2.3l0,10.2l5.2,0l0,-10.4c0,-3.6,-1.1,-6.4,-4.6,-6.4c-1.7,0,-3.2,0.8,-4.1,2.1l-0.1,0L758,117.5l-4.5,0c0.1,1.6,0.1,3.5,0.1,5.2Zm-8.8,-3.6c-1.2,0,-1.6,-1.9,-1.6,-4.7c0,-2.2,0.3,-4.6,1.6,-4.6c1.1,0,1.5,2.4,1.5,4.6c0,2.3,-0.4,4.7,-1.5,4.7Zm0,3.8c2.4,0,6.6,-1.5,6.6,-8.6c0,-4.9,-2.3,-8.4,-6.6,-8.4c-3.5,0,-6.8,2.7,-6.8,8.6c0,5.2,2.4,8.4,6.7,8.4ZM727.9,134l5.2,0l0,-8.1c0,-0.7,0.1,-1.4,0.3,-1.7c0.6,-1.6,1.8,-1.9,2.4,-1.9c0.5,0,0.8,0,1.2,0.1l0,-5.1c-0.3,-0.1,-0.6,-0.1,-1.1,-0.1c-1.1,0,-2.4,0.8,-3.2,2.6l-0.2,0l-0.2,-2.3l-4.5,0c0.1,1.6,0.1,3.5,0.1,5.2Zm-5.5,-18.3c1.5,0,2.6,-1.1,2.6,-2.7c0,-1.6,-1.1,-2.7,-2.5,-2.7c-1.4,0,-2.6,1.1,-2.6,2.7c0,1.6,1.1,2.7,2.5,2.7Zm2.7,1.8l-5.2,0l0,16.5l5.2,0l0,-16.5Zm-20.5,0l4.6,16.5l4.8,0l4.5,-16.5l-5.1,0l-1,6.5c-0.2,1.7,-0.4,3.1,-0.6,4.9l-0.1,0c-0.2,-1.8,-0.4,-3.2,-0.6,-4.9l-1,-6.5ZM690.2,134l5.2,0l0,-9.9c0,-0.7,0.2,-1.3,0.3,-1.6c0.3,-0.6,0.8,-1,1.3,-1c1.1,0,1.4,1.1,1.4,2.3l0,10.2l5.2,0l0,-10.4c0,-3.6,-1.1,-6.4,-4.6,-6.4c-1.7,0,-3.2,0.8,-4.1,2.1l-0.1,0l-0.2,-1.8l-4.5,0c0.1,1.6,0.1,3.5,0.1,5.2Zm-10.3,-9.7c0,-1.4,0.5,-3.4,1.8,-3.4c1.3,0,1.6,1.8,1.6,3.4Zm7.9,3.6c0.1,-0.5,0.2,-1.3,0.2,-2.7c0,-5.5,-2.4,-8,-6.1,-8c-3.9,0,-7,3.3,-7,8.9c0,5.2,2.6,8.1,7.4,8.1c1.8,0,3.7,-0.3,4.9,-0.8l-0.7,-3.7c-0.8,0.3,-2,0.6,-3.3,0.6c-2,0,-3.2,-0.9,-3.3,-2.4Zm-25.1,0.3c0,0.4,-0.1,0.7,-0.2,1c-0.3,0.6,-0.7,0.8,-1.1,0.8c-1,0,-1.8,-1.1,-1.8,-4.1c0,-2.4,0.5,-4.4,1.8,-4.4c0.7,0,1,0.7,1.2,1.4c0.1,0.3,0.1,0.7,0.1,0.9Zm0,-17.5l0,8l-0.1,0c-0.4,-0.7,-1.1,-1.5,-2.7,-1.5c-2.9,0,-5.5,2.8,-5.5,8.6c0,4.2,1.5,8.4,5.3,8.4c1.4,0,2.8,-0.8,3.5,-2l0.3,1.8l4.5,0c-0.1,-1.8,-0.2,-3.5,-0.2,-5.3l0,-18ZM638.8,134l5.3,0l0,-9.9c0,-0.7,0.1,-1.3,0.2,-1.6c0.3,-0.6,0.8,-1,1.3,-1c1.1,0,1.4,1.1,1.4,2.3l0,10.2l5.2,0l0,-10.4c0,-3.6,-1.1,-6.4,-4.6,-6.4c-1.7,0,-3.2,0.8,-4.1,2.1l-0.3,-1.8l-4.5,0c0.1,1.6,0.1,3.5,0.1,5.2ZM631,128.8c0,0.3,-0.1,0.5,-0.1,0.7c-0.3,0.8,-1,1,-1.6,1c-0.5,0,-1.4,-0.5,-1.4,-2c0,-1.7,1.6,-2.3,3.1,-2.4Zm5.1,-4.3c0,-3.2,-0.6,-7.3,-6.3,-7.3c-2.6,0,-4.7,0.8,-5.7,1.3L625,122c1.1,-0.7,2.2,-1,3.6,-1c1.4,0,2.2,0.7,2.2,1.6l0,0.3c-3.7,0,-7.8,1.8,-7.8,6.2c0,3,2,5.1,4.6,5.1c1.5,0,2.8,-0.5,3.8,-1.8l0.3,1.6l4.7,0c-0.2,-1.2,-0.3,-2.5,-0.3,-3.8Zm-23.2,13.3c1.7,-2.8,3.2,-6.2,4.3,-9.4l-5.2,0.3c-0.4,2.9,-1.3,6.3,-2.4,9.5ZM599,133.2c0.8,0.6,2.5,1,4,1c3.7,0,6.2,-1.9,6.2,-5.4c0,-1.6,-0.7,-3.4,-3.3,-4.9c-1.5,-0.8,-1.9,-1.2,-1.9,-1.7c0,-0.7,0.5,-1.2,1.5,-1.2c0.9,0,1.7,0.3,2.3,0.7l0.8,-3.8c-1,-0.4,-2.1,-0.7,-3.5,-0.7c-3.6,0,-5.8,2.4,-5.8,5.5c0,1.3,0.4,3.2,3.3,4.8c1.4,0.7,1.9,1.1,1.9,1.8c0,0.7,-0.6,1.1,-1.5,1.1c-1.2,0,-2.5,-0.5,-3.2,-0.9Zm-9.5,-8.9c0,-1.4,0.5,-3.4,1.8,-3.4c1.3,0,1.6,1.8,1.6,3.4Zm7.9,3.6c0.1,-0.5,0.2,-1.3,0.2,-2.7c0,-5.5,-2.4,-8,-6,-8c-3.9,0,-7.1,3.3,-7.1,8.9c0,5.2,2.7,8.1,7.4,8.1c1.8,0,3.7,-0.3,4.9,-0.8l-0.6,-3.7c-0.9,0.3,-2,0.6,-3.4,0.6c-1.9,0,-3.2,-0.9,-3.3,-2.4ZM579.6,115.7c1.5,0,2.7,-1.1,2.6,-2.7c0,-1.6,-1.1,-2.7,-2.5,-2.7c-1.4,0,-2.6,1.1,-2.6,2.7c0,1.6,1.1,2.7,2.5,2.7Zm2.7,1.8l-5.2,0l0,16.5l5.2,0l0,-16.5Zm-15.6,-3l0,3l-1.9,0l0,3.6l1.9,0l0,7c0,2.8,0.5,4.1,1.6,5c0.8,0.8,2,1.1,3.4,1.1c1.3,0,2.4,-0.1,3,-0.3l0,-4.1c-0.4,0.1,-0.7,0.1,-1.2,0.1c-0.8,0,-1.6,-0.4,-1.6,-2.2l0,-6.6l3.2,0l0,-3.6l-3.2,0l0,-4.5Zm-6.4,1.2c1.5,0,2.6,-1.1,2.6,-2.7c0,-1.6,-1.1,-2.7,-2.5,-2.7c-1.4,0,-2.6,1.1,-2.6,2.7c0,1.6,1.1,2.7,2.5,2.7Zm2.7,1.8l-5.2,0l0,16.5l5.2,0l0,-16.5ZM541.7,134l5.2,0l0,-9.9c0,-0.7,0.1,-1.3,0.2,-1.6c0.3,-0.6,0.8,-1,1.4,-1c1,0,1.3,1.1,1.3,2.3l0,10.2l5.2,0l0,-10.4c0,-3.6,-1.1,-6.4,-4.6,-6.4c-1.7,0,-3.2,0.8,-4.1,2.1L546,117.5l-4.5,0c0.1,1.6,0.2,3.5,0.2,5.2Zm-3,-16.5l-5.2,0l0,10.4c0,0.5,-0.1,1.1,-0.3,1.3c-0.2,0.5,-0.6,0.7,-1,0.7c-1,0,-1.4,-1.2,-1.4,-3.1l0,-9.3l-5.2,0l0,9.8c0,4.6,1.3,6.9,4.5,6.9c1.7,0,3.1,-0.7,4,-2l0.3,1.8l4.5,0c-0.1,-1.7,-0.2,-3.5,-0.2,-5.3ZM502,134l5.1,0l0,-10.4c0,-0.4,0.1,-0.9,0.2,-1.1c0.3,-0.7,0.8,-1,1.4,-1c1.1,0,1.1,1.4,1.1,2.3l0,10.2l5.2,0l0,-10.4c0,-0.4,0.1,-0.9,0.1,-1c0.3,-0.8,0.7,-1.1,1.4,-1.1c1,0,1.2,1.3,1.2,3l0,9.5l5.2,0l0,-10.3c0,-3.9,-1.2,-6.5,-4.4,-6.5c-0.9,0,-1.7,0.2,-2.4,0.6c-0.6,0.4,-1.3,1,-1.7,1.5c-0.6,-1.2,-1.7,-2.1,-3.7,-2.1c-1.7,0,-3.1,1,-4,2.1l-0.1,0l-0.3,-1.8l-4.5,0c0.1,1.6,0.2,3.5,0.2,5.2Zm-23.8,0l5.2,0l0,-10.4c0,-0.4,0.1,-0.9,0.2,-1.1c0.3,-0.7,0.8,-1,1.3,-1c1.2,0,1.2,1.4,1.2,2.3l0,10.2l5.2,0l0,-10.4c0,-0.4,0,-0.9,0.1,-1c0.3,-0.8,0.7,-1.1,1.4,-1.1c1,0,1.2,1.3,1.2,3l0,9.5l5.1,0l0,-10.3c0,-3.9,-1.1,-6.5,-4.3,-6.5c-0.9,0,-1.7,0.2,-2.4,0.6c-0.6,0.4,-1.3,1,-1.7,1.5l-0.1,0c-0.5,-1.2,-1.6,-2.1,-3.6,-2.1c-1.7,0,-3.1,1,-4.1,2.1l-0.3,-1.8l-4.5,0c0.1,1.6,0.1,3.5,0.1,5.2Zm-8.8,-3.6c-1.2,0,-1.6,-1.9,-1.6,-4.7c0,-2.2,0.3,-4.6,1.6,-4.6c1.1,0,1.5,2.4,1.5,4.6c0,2.3,-0.4,4.7,-1.4,4.7Zm0,3.8c2.4,0,6.6,-1.5,6.6,-8.6c0,-4.9,-2.3,-8.4,-6.6,-8.4c-3.5,0,-6.8,2.7,-6.8,8.6c0,5.2,2.4,8.4,6.8,8.4Zm-8.1,-4.5c-0.4,0.2,-0.9,0.3,-1.5,0.3c-1.9,0,-3.1,-1.7,-3.1,-4.3c0,-2.7,1.3,-4.3,3.2,-4.3c0.6,0,1.2,0.2,1.5,0.3l0.6,-4c-0.4,-0.2,-1.3,-0.4,-2.4,-0.4c-4.8,0,-8.1,3.3,-8.1,8.6c0,5.4,2.9,8.3,7.3,8.3c1.3,0,2.5,-0.3,2.9,-0.4ZM441,137.8c1.8,-2.8,3.2,-6.2,4.3,-9.4l-5.2,0.3c-0.4,2.9,-1.3,6.3,-2.3,9.5ZM423.1,134l5.3,0l0,-10.1c0,-0.4,0.1,-1,0.2,-1.2c0.3,-0.9,0.8,-1.2,1.3,-1.2c1.1,0,1.4,1.3,1.4,2.7l0,9.8l5.2,0l0,-9.6c0,-4.2,-1,-7.2,-4.4,-7.2c-0.8,0,-1.6,0.2,-2.2,0.6c-0.6,0.4,-1.1,0.8,-1.5,1.4l0,-8.5l-5.3,0ZM412.7,114.5l0,3l-1.9,0l0,3.6l1.9,0l0,7c0,2.8,0.5,4.1,1.5,5c0.9,0.8,2.1,1.1,3.5,1.1c1.3,0,2.4,-0.1,3,-0.3l0,-4.1c-0.4,0.1,-0.7,0.1,-1.2,0.1c-0.8,0,-1.6,-0.4,-1.6,-2.2l0,-6.6l3.2,0l0,-3.6l-3.2,0l0,-4.5ZM403.8,134l5.2,0l0,-23.3l-5.2,0l0,23.3Zm-7.9,-5.2c0,0.3,-0.1,0.5,-0.1,0.7c-0.3,0.8,-1.1,1,-1.6,1c-0.6,0,-1.4,-0.5,-1.4,-2c0,-1.7,1.5,-2.3,3.1,-2.4Zm5.1,-4.3c0,-3.2,-0.6,-7.3,-6.4,-7.3c-2.5,0,-4.6,0.8,-5.6,1.3l0.9,3.5c1,-0.7,2.2,-1,3.6,-1c1.3,0,2.2,0.7,2.2,1.6l0,0.3c-3.7,0,-7.8,1.8,-7.8,6.2c0,3,1.9,5.1,4.6,5.1c1.4,0,2.8,-0.5,3.8,-1.8l0.3,1.6l4.6,0C401,132.8,401,131.5,401,130.2Zm-22.5,-0.2c0,-1.4,0.5,-3.4,1.8,-3.4c1.3,0,1.6,1.8,1.6,3.4Zm7.9,3.6c0.1,-0.5,0.2,-1.3,0.2,-2.7c0,-5.5,-2.4,-8,-6,-8c-3.9,0,-7.1,3.3,-7.1,8.9c0,5.2,2.7,8.1,7.4,8.1c1.8,0,3.7,-0.3,4.9,-0.8l-0.6,-3.7c-0.9,0.3,-2,0.6,-3.4,0.6c-1.9,0,-3.2,-0.9,-3.3,-2.4ZM358,134l5.2,0l0,-10.1c0,-0.4,0.1,-1,0.2,-1.2c0.3,-0.9,0.8,-1.2,1.4,-1.2c1.1,0,1.3,1.3,1.3,2.7l0,9.8l5.2,0l0,-9.6c0,-4.2,-0.9,-7.2,-4.3,-7.2c-0.8,0,-1.6,0.2,-2.3,0.6c-0.6,0.4,-1,0.8,-1.4,1.4l-0.1,0l0,-8.5l-5.2,0Zm-15.3,0l5.2,0l0,-8.1c0,-0.7,0.1,-1.4,0.3,-1.7c0.6,-1.6,1.8,-1.9,2.4,-1.9c0.5,0,0.8,0,1.2,0.1l0,-5.1c-0.3,-0.1,-0.6,-0.1,-1.1,-0.1c-1.1,0,-2.4,0.8,-3.2,2.6l-0.2,0l-0.2,-2.3l-4.5,0c0.1,1.6,0.1,3.5,0.1,5.2Zm-2.9,-16.5l-5.2,0l0,10.4c0,0.5,-0.1,1.1,-0.3,1.3c-0.2,0.5,-0.6,0.7,-1,0.7c-1,0,-1.5,-1.2,-1.5,-3.1l0,-9.3l-5.2,0l0,9.8c0,4.6,1.3,6.9,4.6,6.9c1.7,0,3.1,-0.7,3.9,-2l0.1,0l0.3,1.8l4.4,0c0,-1.7,-0.1,-3.5,-0.1,-5.3Zm-21.9,12.9c-1.2,0,-1.6,-1.9,-1.6,-4.7c0,-2.2,0.3,-4.6,1.6,-4.6c1.2,0,1.5,2.4,1.5,4.6c0,2.3,-0.3,4.7,-1.4,4.7Zm0,3.8c2.5,0,6.6,-1.5,6.6,-8.6c0,-4.9,-2.3,-8.4,-6.6,-8.4c-3.4,0,-6.7,2.7,-6.7,8.6c0,5.2,2.3,8.4,6.7,8.4ZM299,127.9c0,0.4,-0.1,0.9,-0.2,1.2c-0.3,0.5,-0.6,0.7,-1.1,0.7c-1.2,0,-1.8,-1.4,-1.8,-4c0,-2.3,0.4,-4.3,1.9,-4.3c0.4,0,0.8,0.4,1,0.9c0.1,0.3,0.2,0.8,0.2,1.2Zm5.2,-5.2c0,-1.7,0,-3.6,0.1,-5.2l-4.5,0l-0.2,1.6l-0.1,0c-0.7,-1.4,-1.9,-1.9,-3,-1.9c-3.4,0,-5.7,3.5,-5.7,8.7c0,3.6,1.2,7.9,5.2,7.9c1.2,0,2.4,-0.5,2.9,-1.4l0.1,0l0,0.7c0,2,-0.7,3.5,-3,3.5c-1.3,0,-2.3,-0.2,-3.2,-0.6l-0.9,3.9c1.3,0.6,2.8,0.8,4.3,0.8c2.7,0,4.5,-0.7,5.8,-1.8c1.5,-1.4,2.2,-3.4,2.2,-6.7Zm-29,11.3l5.2,0l0,-9.9c0,-0.7,0.1,-1.3,0.3,-1.6c0.3,-0.6,0.7,-1,1.3,-1c1,0,1.3,1.1,1.3,2.3l0,10.2l5.2,0l0,-10.4c0,-3.6,-1,-6.4,-4.5,-6.4c-1.8,0,-3.2,0.8,-4.1,2.1l-0.1,0l-0.3,-1.8l-4.4,0c0,1.6,0.1,3.5,0.1,5.2Zm-5.5,-18.3c1.4,0,2.6,-1.1,2.6,-2.7c0,-1.6,-1.2,-2.7,-2.6,-2.7c-1.4,0,-2.6,1.1,-2.6,2.7c0,1.6,1.2,2.7,2.5,2.7Zm2.7,1.8l-5.3,0l0,16.5l5.3,0l0,-16.5Zm-20.5,0l4.6,16.5l4.8,0l4.4,-16.5l-5.1,0l-0.9,6.5c-0.3,1.7,-0.5,3.1,-0.7,4.9c-0.3,-1.8,-0.5,-3.2,-0.7,-4.9l-0.9,-6.5Zm-7,12.9c-1.2,0,-1.7,-1.9,-1.7,-4.7c0,-2.2,0.3,-4.6,1.6,-4.6c1.2,0,1.5,2.4,1.5,4.6c0,2.3,-0.3,4.7,-1.4,4.7Zm-0.1,3.8c2.5,0,6.7,-1.5,6.7,-8.6c0,-4.9,-2.4,-8.4,-6.7,-8.4c-3.4,0,-6.7,2.7,-6.7,8.6c0,5.2,2.3,8.4,6.7,8.4ZM228,134l5.2,0l0,-8.1c0,-0.7,0.1,-1.4,0.2,-1.7c0.6,-1.6,1.9,-1.9,2.5,-1.9c0.5,0,0.8,0,1.1,0.1l0,-5.1c-0.3,-0.1,-0.5,-0.1,-1.1,-0.1c-1,0,-2.4,0.8,-3.2,2.6l-0.1,0l-0.3,-2.3l-4.4,0c0,1.6,0.1,3.5,0.1,5.2ZM217.5,123.4c0,-0.4,0.1,-0.8,0.2,-1.1c0.2,-0.5,0.7,-0.8,1.1,-0.8c1,0,1.8,1.2,1.8,4.3c0,2.2,-0.5,4.2,-1.8,4.2c-0.4,0,-0.8,-0.2,-1,-0.6c-0.2,-0.3,-0.3,-0.9,-0.3,-1.4Zm-5.2,17l5.2,0l0,-7.6l0.1,0c0.4,0.7,1.4,1.4,2.6,1.4c2.9,0,5.5,-2.7,5.5,-8.5c0,-4.2,-1.3,-8.5,-5.2,-8.5c-1.7,0,-2.9,0.9,-3.5,2.1l-0.1,0l-0.2,-1.8l-4.5,0c0.1,1.7,0.1,3.5,0.1,5.2ZM188.6,134l5.2,0l0,-10.4c0,-0.4,0.1,-0.9,0.2,-1.1c0.3,-0.7,0.8,-1,1.3,-1c1.1,0,1.2,1.4,1.2,2.3l0,10.2l5.1,0l0,-10.4c0,-0.4,0.1,-0.9,0.2,-1c0.2,-0.8,0.7,-1.1,1.3,-1.1c1.1,0,1.2,1.3,1.2,3l0,9.5l5.2,0l0,-10.3c0,-3.9,-1.1,-6.5,-4.4,-6.5c-0.8,0,-1.6,0.2,-2.3,0.6c-0.7,0.4,-1.3,1,-1.7,1.5l-0.1,0c-0.5,-1.2,-1.7,-2.1,-3.7,-2.1c-1.6,0,-3.1,1,-4,2.1l-0.1,0L193,117.5l-4.5,0c0,1.6,0.1,3.5,0.1,5.2Zm-8.2,0l5.2,0l0,-22.7l-5.2,0l0,22.7Z" class="g2_1" />
<path d="M1101.7,57.5c0,-4.9,1.6,-11.6,6.2,-11.6c4.6,0,5.6,6,5.6,11.6ZM1129.1,70c0.3,-1.7,0.6,-4.3,0.6,-9.2c0,-19.2,-8.3,-27.8,-20.9,-27.8c-13.5,0,-24.5,11.4,-24.5,30.9c0,18.1,9.2,28,25.7,28c6.3,0,12.8,-1,17,-2.6l-2.2,-12.8c-3.1,1,-7,1.9,-11.6,1.9c-6.8,0,-11.3,-3.2,-11.5,-8.4Zm-93,-36.1l16,57.3l16.7,0l15.4,-57.3l-17.7,0l-3.2,22.8c-0.8,5.8,-1.5,10.6,-2.2,16.9l-0.3,0c-0.8,-6.2,-1.5,-11.3,-2.3,-16.9l-3.1,-22.8Zm-12.9,-6c5,0,9.1,-3.8,9,-9.3c0,-5.8,-4,-9.4,-8.9,-9.4c-4.8,0,-9,3.6,-8.8,9.4c-0.2,5.5,3.8,9.3,8.6,9.3Zm9.3,6l-18,0l0,57.3l18,0l0,-57.3ZM979.4,23.6l0,10.3l-6.6,0l0,12.6l6.6,0l0,24.4c0,9.5,2,14.1,5.5,17.3c3,2.7,7.2,3.7,12,3.7c4.4,0,8.1,-0.5,10.5,-1l0,-14.1c-1.5,0.2,-2.7,0.3,-4.2,0.3c-2.9,0,-5.7,-1.5,-5.7,-7.8l0,-22.8l11.3,0l0,-12.6l-11.3,0l0,-15.5ZM951.1,73.4c0,0.9,-0.1,1.7,-0.3,2.3c-1.1,2.6,-3.5,3.4,-5.4,3.4c-2,0,-4.9,-1.9,-4.9,-6.8c0,-6,5.4,-8.1,10.6,-8.2ZM968.8,58.2C968.8,47.2,966.9,33,946.9,33c-8.9,0,-16.2,2.8,-19.7,4.6l3.2,12c3.7,-2.2,7.6,-3.5,12.6,-3.5c4.6,0,7.5,2.5,7.5,5.6l0,1.1c-12.9,0.1,-26.9,6.1,-26.9,21.5c0,10.3,6.7,17.8,15.8,17.8c5.1,0,9.7,-1.9,13.1,-6.4l0.3,0l0.9,5.5l16.1,0c-0.7,-4,-1,-8.5,-1,-13.2ZM908.7,27.9c5,0,9.1,-3.8,9,-9.3c0,-5.8,-4,-9.4,-8.8,-9.4c-4.8,0,-9,3.6,-8.9,9.4c-0.1,5.5,3.8,9.3,8.6,9.3Zm9.4,6l-18.1,0l0,57.3l18.1,0l0,-57.3ZM864.9,23.6l0,10.3l-6.6,0l0,12.6l6.6,0l0,24.4c0,9.5,2,14.1,5.5,17.3c3,2.7,7.2,3.7,12,3.7c4.4,0,8.2,-0.5,10.5,-1l0,-14.1c-1.5,0.2,-2.7,0.3,-4.2,0.3c-2.9,0,-5.7,-1.5,-5.7,-7.8l0,-22.8l11.3,0l0,-12.6l-11.3,0l0,-15.5Zm-20.8,4.3c5,0,9.1,-3.8,9,-9.3c0,-5.8,-4,-9.4,-8.9,-9.4c-4.8,0,-9,3.6,-8.8,9.4c-0.2,5.5,3.8,9.3,8.6,9.3Zm9.3,6l-18,0l0,57.3l18,0l0,-57.3ZM780.6,91.2l18,0l0,-34.4c0,-2.3,0.5,-4.3,1,-5.3c1,-2.2,2.5,-3.4,4.5,-3.4c3.6,0,4.7,3.7,4.7,7.7l0,35.4l18,0l0,-36C826.8,42.9,823.1,33,811,33c-6,0,-11.1,2.9,-14.2,7.4l-0.3,0l-0.9,-6.5l-15.5,0c0.2,5.8,0.5,12.2,0.5,18.3Zm-27.4,0l18,0l0,-78.5l-18,0l0,78.5ZM692.7,88.6c2.7,2,8.8,3.3,13.8,3.3c12.9,0,21.5,-6.6,21.5,-18.5c0,-5.8,-2.2,-12.1,-11.4,-17.1c-5.2,-3,-6.5,-4.1,-6.5,-6.1c0,-2.1,1.5,-3.8,5,-3.8c3.1,0,5.9,1,8.1,2.2L726,35.5C722.7,34,718.7,33,713.8,33c-12.6,0,-20.2,8.3,-20.2,19.1c0,4.6,1.6,11,11.7,16.5c4.7,2.6,6.4,3.9,6.4,6.3c0,2.6,-1.9,3.7,-5.2,3.7c-4,0,-8.5,-1.6,-10.9,-3Zm-31.9,-65l0,10.3l-6.7,0l0,12.6l6.7,0l0,24.4c0,9.5,2,14.1,5.5,17.3c3,2.7,7.2,3.7,12,3.7c4.4,0,8.1,-0.5,10.4,-1l0,-14.1c-1.5,0.2,-2.6,0.3,-4.2,0.3c-2.9,0,-5.7,-1.5,-5.7,-7.8l0,-22.8l11.3,0l0,-12.6l-11.3,0l0,-15.5ZM623.5,57.5c0,-4.9,1.6,-11.6,6.1,-11.6c4.7,0,5.6,6,5.6,11.6ZM650.8,70c0.4,-1.7,0.6,-4.3,0.6,-9.2C651.4,41.6,643.2,33,630.6,33c-13.5,0,-24.5,11.4,-24.5,30.9c0,18.1,9.2,28,25.6,28c6.3,0,12.9,-1,17,-2.6L646.5,76.5c-3,1,-7,1.9,-11.5,1.9c-6.9,0,-11.3,-3.2,-11.5,-8.4ZM573.6,57.5c0,-4.9,1.6,-11.6,6.2,-11.6c4.6,0,5.5,6,5.5,11.6ZM601,70c0.3,-1.7,0.5,-4.3,0.5,-9.2C601.5,41.6,593.3,33,580.7,33c-13.5,0,-24.5,11.4,-24.5,30.9c0,18.1,9.2,28,25.6,28c6.3,0,12.9,-1,17.1,-2.6L596.6,76.5c-3,1,-6.9,1.9,-11.5,1.9c-6.9,0,-11.3,-3.2,-11.5,-8.4ZM522.6,91.2l18.1,0l0,-28c0,-2.5,0.3,-4.7,0.8,-5.9c2,-5.6,6.4,-6.5,8.5,-6.5c1.6,0,2.8,0,3.9,0.2l0,-17.7C552.9,33.1,552,33,550.1,33c-3.7,0,-8.3,2.6,-11.1,9l-0.4,0l-1,-8.1l-15.5,0c0.3,5.8,0.5,12.2,0.5,18.3ZM487.4,23.6l0,10.3l-6.7,0l0,12.6l6.7,0l0,24.4c0,9.5,1.9,14.1,5.4,17.3c3.1,2.7,7.3,3.7,12,3.7c4.5,0,8.2,-0.5,10.5,-1l0,-14.1c-1.5,0.2,-2.7,0.3,-4.2,0.3c-2.9,0,-5.7,-1.5,-5.7,-7.8l0,-22.8l11.3,0l0,-12.6l-11.3,0l0,-15.5ZM437.5,88.9c2.8,1.5,9.1,3,15.9,3c16.5,0,27.6,-9.8,27.6,-24.6C481,59.3,477.4,51,466.5,45C457.7,39.9,456.1,37.7,456.1,34.4c0,-3.7,2.9,-6.8,8.9,-6.8c4.6,0,8,1.3,10.3,2.7l2.6,-15.5C475.4,13.4,470.3,12,464.9,12c-18.2,0,-26.5,11.2,-26.5,24.1c0,5.8,2.1,14.4,14.8,22c6.8,4.1,10.1,6.3,10.1,11.2c0,4,-3,7,-9.8,7c-4.5,0,-10.3,-1.2,-13.6,-3Zm-70,2.3l18.1,0l0,-34.4c0,-2.3,0.5,-4.3,0.9,-5.3c1.1,-2.2,2.6,-3.4,4.6,-3.4c3.6,0,4.6,3.7,4.6,7.7l0,35.4l18.1,0l0,-36C413.8,42.9,410.1,33,397.9,33c-5.9,0,-11,2.9,-14.2,7.4l-0.2,0l-0.9,-6.5l-15.5,0c0.2,5.8,0.4,12.2,0.4,18.3ZM332.8,57.5c0,-4.9,1.7,-11.6,6.2,-11.6c4.7,0,5.6,6,5.6,11.6ZM360.2,70c0.4,-1.7,0.6,-4.3,0.6,-9.2C360.8,41.6,352.5,33,339.9,33c-13.5,0,-24.4,11.4,-24.4,30.9c0,18.1,9.2,28,25.6,28c6.3,0,12.8,-1,17,-2.6L355.9,76.5c-3,1,-7,1.9,-11.5,1.9c-6.9,0,-11.3,-3.2,-11.6,-8.4ZM282.9,57.5c0,-4.9,1.7,-11.6,6.2,-11.6c4.7,0,5.6,6,5.6,11.6ZM310.3,70c0.4,-1.7,0.6,-4.3,0.6,-9.2C310.9,41.6,302.6,33,290,33c-13.5,0,-24.4,11.4,-24.4,30.9c0,18.1,9.2,28,25.6,28c6.3,0,12.8,-1,17,-2.6L306,76.5c-3,1,-7,1.9,-11.5,1.9c-6.9,0,-11.3,-3.2,-11.6,-8.4ZM232,91.2l18,0l0,-28c0,-2.5,0.4,-4.7,0.8,-5.9c2,-5.6,6.4,-6.5,8.5,-6.5c1.7,0,2.8,0,4,0.2l0,-17.7c-1,-0.2,-2,-0.3,-3.8,-0.3c-3.8,0,-8.3,2.6,-11.1,9l-0.5,0L247,33.9l-15.5,0c0.2,5.8,0.5,12.2,0.5,18.3ZM223.8,45.9l-22.1,0l0,14.7l5.7,0l0,15.9c-0.6,0.3,-1.3,0.3,-2,0.3c-6,0,-12.6,-6.4,-12.6,-23c0,-18.7,7.3,-25.6,17.9,-25.6c3.6,0,6.6,0.6,8.9,1.7l3,-15.5C220.1,13.3,215.4,12,209,12c-17.9,0,-34.4,12.5,-34.9,40.2c-0.2,13.1,3.2,25,10.5,31.9c5.1,5,12.1,7.8,22,7.8c6,0,13.9,-1.5,17.2,-2.8Z" class="g2_1" />

</svg>
